<mxfile host="Electron" agent="Mozilla/5.0 (Windows NT 10.0; Win64; x64) AppleWebKit/537.36 (KHTML, like Gecko) draw.io/24.7.8 Chrome/128.0.6613.36 Electron/32.0.1 Safari/537.36" version="24.7.8">
  <diagram name="Página-1" id="jiHtn-9oHoOsSpD01oST">
    <mxGraphModel dx="1036" dy="606" grid="1" gridSize="10" guides="1" tooltips="1" connect="1" arrows="1" fold="1" page="1" pageScale="1" pageWidth="827" pageHeight="1169" math="0" shadow="0">
      <root>
        <mxCell id="0" />
        <mxCell id="1" parent="0" />
        <mxCell id="sNh2fQXsmdcM-SWCnf_G-1" value="&lt;b&gt;Principios de Conteo&lt;/b&gt;" style="text;html=1;align=center;verticalAlign=middle;whiteSpace=wrap;rounded=0;" vertex="1" parent="1">
          <mxGeometry y="320" width="100" height="30" as="geometry" />
        </mxCell>
        <mxCell id="sNh2fQXsmdcM-SWCnf_G-2" value="" style="shape=curlyBracket;whiteSpace=wrap;html=1;rounded=1;labelPosition=left;verticalLabelPosition=middle;align=right;verticalAlign=middle;" vertex="1" parent="1">
          <mxGeometry x="90" y="110" width="20" height="442.5" as="geometry" />
        </mxCell>
        <mxCell id="sNh2fQXsmdcM-SWCnf_G-3" value="&lt;b&gt;Principio de la multiplicación (Principio multiplicativo)&lt;/b&gt;" style="text;html=1;align=center;verticalAlign=middle;whiteSpace=wrap;rounded=0;" vertex="1" parent="1">
          <mxGeometry x="110" y="130" width="190" height="30" as="geometry" />
        </mxCell>
        <mxCell id="sNh2fQXsmdcM-SWCnf_G-4" value="Este principio establece que, si un evento puede ocurrir de &lt;strong&gt;m&lt;/strong&gt; maneras diferentes y otro evento puede ocurrir de &lt;strong&gt;n&lt;/strong&gt; maneras diferentes, entonces el número total de maneras en que ambos eventos pueden ocurrir juntos es el producto de &lt;strong&gt;m&lt;/strong&gt; y &lt;strong&gt;n&lt;/strong&gt;." style="text;html=1;align=left;verticalAlign=middle;whiteSpace=wrap;rounded=0;" vertex="1" parent="1">
          <mxGeometry x="315" y="140" width="490" height="30" as="geometry" />
        </mxCell>
        <mxCell id="sNh2fQXsmdcM-SWCnf_G-5" value="" style="shape=image;verticalLabelPosition=bottom;labelBackgroundColor=default;verticalAlign=top;aspect=fixed;imageAspect=0;image=data:image/png,iVBORw0KGgoAAAANSUhEUgAAAWsAAAAwCAYAAADXeFv4AAAAAXNSR0IArs4c6QAAAARnQU1BAACxjwv8YQUAAAAJcEhZcwAADsMAAA7DAcdvqGQAABPFSURBVHhe7Z0PUBv3lce/ufjGuDHFuWRKps4dTKyatCaSJ0OgTX0whZQ2Y4Kvxriew8clJKZJKEld4lxC7IuL3dbFpKUi/6BOUrDreITPCcJ1Cr7jEL2QkZyzLXXwIefwSK6dkXxmjKb2IE+c+d377R8hrVYgyTZGye8zs+xqd7X7fu+93/u93X0rbmIEBAKBQDCn+StlLhAIBII5jAjWAoFAkAKIYC0QCAQpgAjWAoFAkAKIYC0QCAQpgAjWAoFAkAKIYC0QCAQpgAjWAoFAkAKIYC0QCAQpgAjWAoFAkAKIYC0QCAQpgAjWAoFAkALE90NOlwIIXFGWE2I+MjLSlOW5QADuoePwnnPDffYycFsBqtfnI0PZmhhB+I/ZMXrGC9epAH3OQfnTpciSN36+CPrhcozCc9oF7zh9XlqO+gc/l5oQCK4fPFjPhH17OktPlydDQRkrWyVPeQZ1vYHlrVTWFxhC+6anNzG7coy5gZO1k4wlJkW+agvzKVsSx8f6nqP2FucqbW2eY22dRXx9rDFcrzsS0IS7k1VwPypuZIPnlXVzlVSSVfCZI45g7WOWagrSa5vZoCay2XconVMbqD7xscEdFbS+ilnOKOuShgfFRtaXfFSNZqyTlV11sFaxs6bPe7BWGW5KOFj7uqsUH0pnzQ5l5RwllWQVfPaI4551ELhiwlMvbEJRprJKS3EmIjbNy0TRvzyLLbH2T4ggAqe9Sd6GicH8BUne+tBnLt3ouaHMS1wTmQ8+i5b1RSh/ej/W3qesnKOkkqyCzx5xBGs/PL2FMC5VPoaRttAkL2Qs0AlYRuSvs8LzsfIxWQJu2HuVZcFnj1uMqH21F3u2pcD9/lSSVfCZI65qkGBxDrJ1kqbMzOlcNg23Lrr61Nr7Tgc6lGWBQCC4KoIudPyiH17l43R439uJrmPKhznAzVsJZVmfwFl4592O5cbFUdnzpRMH0NbjBr66Ck99bxkWKutV0v56Ec4gG6bFkd8MnOyH5fXXsPOXXRgeO4/AgjuxbLHm25f8cFm3ou5xC87iDuTkLwb+zwuv14vLC7Nx+xeU/Th+F6zvWtD1+na0/mYYI/7z+PRL2Vhya4zL8r+cwIFXrHDHkDsmVwJw/1cvDrw7gGG7G/4vkFyZAQz/vAtDKEL1898ESakhAO9hC9pe2YmWvcMYuwRkZy3Bohii6ROE/8g72Es622p+DcMj4zj/6R3IXrIo+oom6Ifj3b149eWtaP39CMYvfIo7tOcbd8P24Qi8J4+g/+AAxr9UQLqic7gO4cC+fgyF2qZoJuCF7aAFvYeH4TwTxO2Ls/Xl/3gYP+8aAgqr8fzXF0bpKouON0/ZlRM868L7x0fhdQ2h9w9DCEhySFvgP/Y+/vsjL1x/7EW/6ybczf2Py33ogCLHTbjzrsVYGH5AhcApG3otu/FWWwva3j2KsXMBLPjbZdC6WAThetPxodiyRjKzb19d2yT8DnT/7lW8tr0Vh0Yu4lK6Tv+J8Jm9ODp2EfPvuIz+XSO4c8WS+H3+ejPuQvduC973UJuXUpt5+sj72X9Y8PbBITj+148FmTlQXVHt6/3/6YD7LzH6wHTMy8Ttvp9hzcs34Tsrc7BIWa3Fu/9RlP0+D421y2LuoyV4uh97f3sIznC5FL86EI9dZ0K5d50UoQcu8T6o+8TDejaVSA8r+9w+NjExwXzuHta00sBKNvUxj7Ibx/l6eMVJWLUJTe1HlZ04YxZWRfvk1VvYKB1vYsLHnN0NrIS+U9ZiZ5PKbhGcoe8kIjcx6e5kdSb+oLWJWWyjzOd1sp7X61jFI1WsQnropPOA8aKdNVPbpIezXpLN52QWan+6oYw1O3Qli+aik5nXGlh6cQPrdHgknU3YmlkendOwsY9NKLtxJo6aWYWhhDXstjOPpAsPs5OMuYYKZnaGne9oO+mxhOVKcqez5n46xyM1zGwdZHaHnfVID4cNrGo3nc/RTG00sx6HkzkdFtZUTN8x1DCLVzlWOLSv7A91rG51HWu32tmod5TZrWZWxXW3knQUJrDvUCMrW5nHDKocoYd2SqWNWllEdrLTvjXPdbI+ks/e38kavknri+l4F5WvKEwON0ntKmm1y7oiHQy2VNA5clndgXAPm2LSyfVG39nUyezcTvS9wR15kg4aDskCx5ZVIW7fTr5tHM8Bsmc62bjbyXx0Dg/5Apc994meiHP0PJHLSrbSeSdku096B1kz96Nr8lD9GjHpJJkaWY+zjzVRm7k/e3g/K65SfHGQtW8gmcnfes5MstHd1N/q22VftLWzGmq3YUNPUu3xvF3DcjdYImKOiqc79raYeC2s7ol2Nkhy8dhS8jLZZ6CJVaxuZJ39ZFe175Bdw7tiIsxisJ5gfRu54hvZoNYJLw6yRq74zYOa4CpXokxXVeI7UCPLoAmWztYVtM7Ammw6mkk0WJMhuGPw/bUGnKQAVaJzfjK5LHtUeykwSp3RTEszQcfgzsrbHxYcp6oSws5JAYfLUfFWtIt53uLBt4J1jikrFDxvlUnHMZjqNMGXBhneXkMuy3siss2TA43yd1p0pFeDtV6gUXW4ujNKh2ppaFQAnCS/4Mcz0MC7I3LgVXVQcyDSgs6WqSA4tWWCghc/R7QO9G2r+h1NmsoWfVmT8O0k2sYHohW0XmvjCWsd7T81sHBfWKHxGQk3DdJx+vzoW1Wh5CjxqYp1jigHmgbP7gpWZ+Uyq/o20KDTyUbDdahUGK0oLmN1b0e2W7ZF8hVnegE7qUBN1hvcWkIJEV+mvqPadetgRDLleVu2a7KVRLMWrCdtTXJWsj0q/5SQFb9CabDKzMGaXRylDNfM2gc06lWMrBtUEgrW3BByAGgc0An8qnE0wXqivyFme+WAom1rNCGdaTJonm1bWs2sc1hd62GdqxU96WW8FJCk9lL2FX4c1X6GqFK7qc4T5Vih7FlHd+o23dI90uNmfsx0pYNOoZaARjuxqlsd+8c613k76yTdWDTpi9pRIgPglG1DgU5h0mlh5lbKtDX11HqyJufbibZtlLXzzEzPxr4eVsP3V/1E+T6/Mopgks5J2XZkS2PwyaRyZZLMpNdPtHCfrWM9kn6V8lcpg5Y2hgglB9o+EPKnaWJDHIQH7FCg/kTeFj+kVzX5UvuaTgatJkfJButZe93c9UEX/DQvz4nxUFK6j+OE+bBL+hg3t+Sg/Af1qP0WP24QAb8bjiEbbCP8bID/SlCaJ03Qjv6XJMmxfEn8d8fcjg6pvflXvLBxecImT/Bu2uKE9yx/8zEWQdgP75R1lp8TWWp4ixGVT9ej+hvK2rMO9B/mCyZk/Z20JpKblfmeHthktURQsCTWg+ICZH9ZWVT5cjZpIhnSkL1M/maX4zi1LhGoXdEPA/S5LR/VpJtKI9mKbB847ZJ07hyTdX35U2kmE2bbgmWRxZxpxkrUP12N/NuUFdNwdb4dZ9uoHUNH+MIiXPBE+pPN7cMCvsnhlh+c3WVCbSZgffIefHH5A1j/423o2G+D93I+Nr1YGl/Z6rw0ZGRkJDnF008yUfTiJpRy/brIDnzVumqUanRx8sSQNK+u1MrtgmMfzTIT8A0dsta9gv33/wFly+9BWf93cfDVSmQlfE+ZYlBbNYy0FBixw0rzon9aC+6CUwTgdtloXo7sJOsuZilY++E9oRMlwshaIndkv8stOX5C+G3o+PEa3PPFe/DA812w/885XFY2XTXj56aeHKtBb0aovSflpQXz5ssLYWT8/TPoPdiLDfnTdZsAzp1WFmeqX/7YIzlITBZnUUjgdMOtHvMGkKZ2gtPnqHXXj8AJK3bW3Iev/M19eLS1B67TMc6WlG21XGffVvFPZ+McVJI/9f6qHFKF7W2l2P5vLSi/i5ZPOWDdtRPP1DyEe/IewgvvxVMHMRukIcuYJT2E856w01AG1N6/XPOw0Ivjh6UtKPiavCYEBXgrV+a6fClI3lgykPM1uS+7j/LaNRNK79UM3AEakHbRvLgU+XoJVRzMWmY9PzpmRRBUX3q5LUNjMA38dyiO+UOZWfDITjzwlYfwjNOElz76CEfe/Cnqf1CJUlOsbHE2oKxEycgycgpQVFikO+XEkbXFBQXBmQZrWV8mpM1gh1SHP8XP+/p6dMyrx8E//wn7f7kF9espc86JK59Mimvm29MxP00ZcLOwXMeXpOk+Ofhx0oy12HP8HP784b9j/5stqF+Tg0xKatq+vxNW/vstM8GvSgKBJKdErpso43RIuSiMWhsF3HAN0PyhAmg3uf5okQJ8fXFB8jolvPvqsGaYMurjf8LBUsqwn+yGN+kX8Fywv8fn0e+lBIb7pRJk07eXJ12jP0vBOhPZJtnVrGP6I7vfK+cNpfdqLvm1jA+huXVIycwcaPvHbfS3CC2vbUFprIilCfAJsTgHJum4AUzGna7TSHtvqbRkdcfIZKgzhDqxLpnIyZd1Zo+hsxB02btKWuC3VqSFSM564ebzzFLdl5tmC79fbocpnwKHtHSNOduNF2q6KXutxSu/qo7q4CF4mdxJ8iCybYGUltmv4uWta+jb07HUqPg32TjG1VHwkuLhxzqw/rfc4pQ0LM1H6Zpa/PTNI/jwd7UkbRd6hmbO7917HsP6f16f5PQYuk4oB5oRN+w84zSWYjm/EggjeJSumGluuj9HE+BcsL1NoTpzE0q/wUO1H7b2+Gqnw/HuexRlAxSoOyql42eteWMqYMu7JMZpagu/0/VYEZZHjCAB2Hp5S0qx4UHucEG49nfo3pKcjlnLrI3/sAmV3NkcozqK8GL0A5pl1qI2nl9rU1MZCkJOqcGFWK4JQn4vH3cVIgJ8ohjxnR/l09yG/qM62r00oXtpm/UgtYW39z0bHDqjhOuVMuwcnn74MD64gcxLbdnVA9sled0UAVifXIOuU7SYUYjqF7mMdoyORR8zePK4dAmd/6NVKLqaNCRedAchuqQd4DZRHfY6oN4O+l4BTLdIa0J4x+zKEnHKiofe4cHMiPLHJQ2jw2qLHszHrfhhRdeMHfea+nYs0oqwSvJDK3ocOh5Hsj5TbZHPf4V8Y1c/hbRIMu4tQAHN71g085CR8/Ae9L7bm+S0B9Xa2xaxUO9Xf8so38IJQ71fXXqvxl+O9cFMjctcX4gC7s+n+tBG5oy3HpqjDdQqoYBdm3jADt2vNmoG5YAdQ3to/u1yFPEBKWhHz2uXcWuCGUvCwToYutTxY1TNGsdGMeqfugzSzRgXl+Nfm6uRdXgbmvZFqsG7rwnbBvKxZe92+YFDCDW7tMJ2VA61wRN2BAtNcma22IhC6TcarOj7IKyrBRzoopFXMsL4BIKXJxFQLkEl+c9dkAN34AL8/HNUIIzE+PDPsIXOY201oz/8EvKKF90b65Q3LJ0YpWwtdAnI7xvu3YJ81zY0/qIf/jCd8Fs3L4w8hdrCGSLnXdV46c1Kunxtw7afWCMuzwIfdMCS9SzWStlIGoyPk4yFwM6ftMERPiqRLtq2tyFz3Rt4o05xeuUS1z8u7xgY94fsJtvXjwuygnDhnNom5bJ4Rt2RzXqbsfODcCEUGx/OROWbL6FazaCC8rl8ik6DE+q5FDn8PmUgpH0k/6Jtquw+JWCN0z58X/61pfKDNbzTg6Hw7PN0N7reSZN8JjBB/nBxAqaFsu6z1r+EN9Zlwv/rbdjcG+6XATh2WZD13FrZj6aRNVHfTqpthLGObEiyWp9vpMw1XL/kh8//BlmbFVk5LjN+rZEleJoGExo0iiKffN1Q/CcTv18dIP1wDa0t5LdA/LC+3I2ih+N8cErwW2VrhlZFBWqVZAO229VDf3XuV5MdpSvb/Lul87naW+D54drE77UrVSFxopYbTT9NV5oyMWJhjatzWW6xUpNZTMurG5llJEZB0UUna6/OZemGPGn/kmozc4bXYZ63MzPfnp7LKjY2MfPmGlb2iJnZz08we0uZXFJlqmM9UrlTDPl1S800XBxllufoeCRHzWYznaeOla3lcvcpv7qnTJqSNrW9qvxlK0tYSb2mlnQGfDYzq+EvUZhKWNXGRtawtoRVPBf5EpEE/7XD1hqWZ1LORRNfrmkdZL7wciS1NEwzNTvC6osjpmZmV8sdtVO47vhxeR31J/ylkgqyQyMztzaxBt5+UxUz2yKL/abqxcMnXgIZQw6u2xiyV3XLx550k75X8ppn2U5NGytIV/yFKY/0ogjfV3o5J1z/qt4M6eSXVaxhcwOrKK5gjYemNBxb1ini8+3k2yYRIat8nhKStXkg7Bx0HP7ylnlzBStZ3cCaWmU95BXUsPZk38i4TsilkDrld2oduqbcVEJ52WzFhibWWF3BGsLsNCMTg8y8Q6fv6OA51Mw6w1/AmxbFroZIn5CRX1JKL65jjfUVrOplJ0vGCvH984HrgfoPDeZlIENzyaoHz0YuT/PPDOTtnMh9gpSWpF3Lf4AQ+kcMU+dRzz0/I/YDpJB8cbZXj9Ax5tMxpm0Sz9AUbUwj03WHZ6OywHGWc107Yul7Wn/gme2la6C3BH07KaaTlbZRK+Xqmxtog7jg8n2qryduQ9xCbdMtpVN8fMa+MItwu98cWx7JJ6/CJ25csBYIBAJB3MzaA0aBQCAQJI8I1gKBQJACiGAtEAgEKYAI1gKBQJACiGAtEAgEKYAI1gKBQJACiGAtEAgEKYAI1gKBQJACiGAtEAgEKYAI1gKBQJACiGAtEAgEKYAI1gKBQJACiGAtEAgEKYAI1gKBQJACiGAtEAgEKYAI1gKBQDDnAf4fLwbmS9yk2LAAAAAASUVORK5CYII=;" vertex="1" parent="1">
          <mxGeometry x="810" y="143.15" width="203" height="26.85" as="geometry" />
        </mxCell>
        <mxCell id="sNh2fQXsmdcM-SWCnf_G-6" value="&lt;b&gt;Principio de la adición (Principio aditivo)&lt;/b&gt;" style="text;html=1;align=center;verticalAlign=middle;whiteSpace=wrap;rounded=0;" vertex="1" parent="1">
          <mxGeometry x="100" y="220" width="170" height="30" as="geometry" />
        </mxCell>
        <mxCell id="sNh2fQXsmdcM-SWCnf_G-7" value="Este principio se aplica cuando hay dos eventos mutuamente excluyentes, es decir, que no pueden ocurrir al mismo tiempo. Si un evento puede ocurrir de &lt;strong&gt;m&lt;/strong&gt; maneras y otro evento mutuamente excluyente puede ocurrir de &lt;strong&gt;n&lt;/strong&gt; maneras, entonces el número total de maneras en que uno u otro evento puede ocurrir es la &lt;strong&gt;suma&lt;/strong&gt; de &lt;strong&gt;m&lt;/strong&gt; y &lt;strong&gt;n&lt;/strong&gt;." style="text;html=1;align=left;verticalAlign=middle;whiteSpace=wrap;rounded=0;" vertex="1" parent="1">
          <mxGeometry x="320" y="220" width="500" height="30" as="geometry" />
        </mxCell>
        <mxCell id="sNh2fQXsmdcM-SWCnf_G-8" value="" style="shape=image;verticalLabelPosition=bottom;labelBackgroundColor=default;verticalAlign=top;aspect=fixed;imageAspect=0;image=data:image/png,iVBORw0KGgoAAAANSUhEUgAAAQ4AAAAqCAYAAABC+7UxAAAAAXNSR0IArs4c6QAAAARnQU1BAACxjwv8YQUAAAAJcEhZcwAADsMAAA7DAcdvqGQAAA9mSURBVHhe7ZwPbBTXnce/uXLCXHBNQxRzIs1yx4LTxHhphe2KIluxe5ZO2EaNY1rFdHtxKFHic67UpS0GdKlD0tSQ1F0nF5yUIhtS0jUCvI5o7bTU6ySOdrkjzPZMvSDQDo2rXQrt7gnkzZXq3e/NvDW741mz4z8xur6PNJ55b2bf/N7vvfd7f35vfAcjIJFIJBb4G3GWSCSSjJGGQyKRWEYaDolEYhlpOCQSiWWk4ZBIJJaRhkMikVhGGg6JRGIZaTgkEollpOGQSCSWkYZDIpFYRhoOiURiGWk4JBKJZaThkEgklkn7dWw8FsNH4toa85GTkyWu5574aAC+CyGoH6iIUTivqhEV/6jfs8zVILzDKi7/NohwHMhZ64SzMEfcnHkig11wvdkN31AIWLsFzz/biKLF4qZEMoekMRwquutW4fFePWQrLMWybH41htBJP93VYlFUtgwLeGzIC/9FLRKo2o/fvFFLd28PIj/fgc2v9GNkMIgIhXf96n+wrVC/Z5kPXkPV93oRHvYiSIlV/+Q8Dj2SK27OJHH4X6xF3b578Pyv9qNo8BGseqofuTt+ifPfKRLPSCRzCDccE/Gx1uxsVr7NzUaiIkojzNzObJZN97KdbgolER1h7q3r6F4r/XqanO5glfsUEZgJxtjATl3uVr+Imgahw3VaWnXdKRqYMcb8rWwdpd/g0ZUfOlijva9834gWlkjmmrRrHHE48fR3apGXbiR+3z1IuZWTh9qmp1EtgtMiHoE3SnOBGSMLCxaKyxkga564mCXODb4GBQ7k2XQN2zYdweXfXcYvn8jTwpK/bgI/KsSeD0RgjjA3HKMqgmVFcEyYT2chJxG3cAGFDCwtQkWZAnVUhKdI4HS/uPrrJH6DT6psWJKk/6zbaN1IMrfE40HghgjMEeaG4y90rLJh4uw9B4smndJnYdE94nKqXPfiZ22KCEgkktuRTzxDiOubXB3F6N/Z8YUVi0TETUbf+z663qGLEie2r1uqR46zkIbxo7i2qBjLPyWiNOKInDqGn+57Fc+4TmA4cgV/uWcZPZPci8YRu/Qe2v91M/acuQ4sL8DaO69BVVWof1yAJX+/EMkzhNhFL3rdB3GgfS/aj5/GhcsxLPj0g1iaZkqSkLv0a9vxBaPYk8C9Mic8bvT/2g/lwzjuXroM8y4eRXtPEHkbnsbDD5i8MOJH9xv/gVd3t+HE8DVcz74XD6YTLBnutfnPYQz7DqP/zBLkFZGgfzDLfwb6pOleYOi/MKIGMHi8H8on7ocjS4XnKKUdiGGJbTkW0eM8f++dGYEaGETvLxTc8RkHls6LIfhuL44eP4kh5RLid92LZYm0IwF4juv6CP6B5Fqei4Vm3Y94rmvfbrS9PpSmzG8SO9cPN+Vnz0vtOEk6u3H33yL4ch8+KnOYdGBzRRzq2z/FwbcUxJLyEh/149jhozj5noJL/3s37rUtEqPxGNTBXriFHu+YpH5agddl9R+s1eOJxBA40gX3OxdT5NLK4dAJDPqCiN1FeVxsXl5pFkfT43tBLI6+kOESaFRhro12Vr6tk/nUKItGoyzk72ANDjureVlhY+IxFu5jzRsqWWVZvp6+o5xV8jA/vtuXshA7NtTC8vliYZtPSy8aDbGBvTXMnp3PGo6GxFOpJOTOfHE0ygZ2V1Ka5axhXw9T1DAb8bpZ62M1rG4jXwQ2XxwNHW0g2cpZU7fCwjyv3lZWY89m+U/2MHPJkuCLwpTfcocua36ZSf4t6nMNvVuT9YVWVr++iXUebGHlFM4u62B8qTV8oplVrl9D+eTP1TH3EP3usWbW2e9jPn8f69QWvPNZi5feQ3mr+W4n61MUpvR3sHqedlkr813TXznOBTero3trGvniOpcxzJTuJnqvnVXu9d2UUWOMKW2VLP/rnUwJ63fGrijMva2c3jsDC+0zSPhoPat/mfRykC+OlzOXEqY6UqPrxE/x3bpuy/dSOVwZYC0b61lrdx9TSF/uZ3h+ylnr6dTcTwVel6e3yD9GadSxFo+P9eyk8rU3sT51hHU+Wc7q2nrYAOVlYF891Qk7qz9q7gCYZcNBlbyMnn24c2KjudDJaiidmgOGO/7WW6av7LXrz6R4dqKs50kuWw3rvCCikrBmOLhieUGvYy1DxoIOMffX9fcbDQc3aNwbYsxT1NNAz9tZ04kUF1Va0ss6BX2STJquEnoZ7kgxHDoJr5Od2dcbDMGHZAT48458VkNlkqyN0IFKLW1j5eINTH9nasNX2rgRspMRSkol2sea6NmWIRFOcI3HZ2g4hjtZXaKTmcJRdyADb9UYGYIyF5UAIeqo3V7JWk4mlynVjUd5vstZuZNkT76lCj1m2uFOwrQNB68r1JFx8cLduofQ7mhgncHk0vWxFi6v0XsqmFXDkXAj1h2eUM2JhJIbWM8VEcXJwHCwKz7W2eZibiW1USfcpGZW0pLhEI0we4NJAyUSyk41HCOsgzdq3murIipBuIfV8/S29mmFdSvSyTotfT7qHs/LGB8FGOxh4p0TR1G6a17L14ciSpDQw4SyujbCeva5WMdJcyNmpx55HGGY1u0eMOiG8rO1M8m4TY6WpykeY38WiUzCmJdGE2263Il6po0stJgEIda5geuKj0ZEVAKqU5VmupoC0zUcvNwSnZhvN5fXZGRBhrKZy5vGcMzilvMI/G/r3hHHcrPtYDR30ibtXegZ5F4ECywugvPfGlFbQGnc4GsjAXgHvVAu8L2hwEd8cXcaqIPd0CQvvD/zjWwkw+ApfrEIfwp5NXnGj2BY2ygHf1BsnpsK09RngW08L1k5OUjnpHHY0q0oOGAzzKlzbQ5xZeDOPFQ/0YgtD/E3UvlEgvBzPQzrckWozMZZmofiQkD5QRU+vaIQVU/tQPshDwIRG2pfciJTB7SWpykembjXsx7ciFc2FdBVDEG/h86lcH6pINWzGAsicJLOVU+gmj+aROR0P7x0rjYtOyP0juT6YzjOjFIdVczvacdZvR2kI6fo22gs4a7+AHw/5zEb4fxnQ7mfo/rMzyvNnCSz+q2KitAxcWlKLmwP6Ffd56w3p9hZD/bUF2LFXYV4vK0HgUuTK8sKkQgvYiKDCjVOJARenczJQ+1bvej9YTVWihjrzK4+ZxzS4WvffASrPrkKX9zeBd9vL6f5hKEAjQeOUEWm6kkGxnuoHTue2oR1K1ZhU0eAzM5twuI85Gnu8SB8P6ZTQQVWGz5diJ+mPNPZsTbP0OHEoAzpxqbic3O/1Jt1XwFsd9LFJcpLgM6bS7Ha0JEE3nGD+zYb1xosoGAWDQdJcisdCV+0Y2Ga7k8QO+dF8KoIEOqRx7Hm85vw2rxGvPW73+DIS7vQuKkaxWl3q30MzM+iPpljw+qSUpSaHYW21B7KEjOnz9kmfmoPvriiCt9SHHjx/Hmc+slzaHyiFhWONL3tfRV47q3zuPzf76L3jZexbXMFaVGFZ1sDXucVOwP4t1WxKR5xK3siAj59NPpQwYRO4NxZrY8m42BobDH6DTc2ZbUozeg7qRzkmdUfcaymkZ/NYX5POx7IrB3Ehn1aZ1dakJe6mZNGIt7D3GxsQennzOvSLBoOGxxV+pWimk1FIlDP8XMuKlZN3g8Hj1XBk/gWZrQbO+q76ddb8MoPaSibTkfctXluaqMQ28pa/eLaWOY93soCVGgNW4F6SYuZQPz6dPrPmdPn7OJH+6PP0t9S7H11l9CJCdxd/EGETv3Y8b1+6pP1nrC0yoldLx3BqXefQwXp0vV2BpbjbBc2f20TNk3x2HwoKBK6NepZn9YTb1m72tAJqDjztt7YisXIL0Fs0KONRCoeKdVGIvFAN7pOzdwIeaoET2vjIzJ0BoMe8MJNas9tqoI2oxmlkdSxYEpbmEXDkYOSr+4C/yTLNzwysQHGR3CGD70Ln8aGklv1kFT7EtOG34spwZeK4eDDrSTUCz5xRVz0oIoyOxVyS76MLbzCv+kn2zuRaNSk0LNKseEbPLce9PhNGvZVD77ldE9jjWMm9TmLjKpQtOyXYLXBfkXUpI19VwfR2jaI2I0Y1Bc98CaNKDlZBcUopvP9izPoPR9w4tBxmgpO8Tj0L5mupNxc3ygw9ljj6xvFhs4sAm9vF50rUL1WMxvwHetAbH4G+ZpVEusbJSgwlJM+TcmF86FizTiqv25HYN6SFEOZgeGIJw3rghg5K6LPjiCYPNwT0clkfbYRz/97KfDis2h/P7mxxeD/EcXl1mL/gUaa5Sax0kE2m+j1iUYbxBm/E0Wf0QL6fd6oj/VgMLlnv0RW/FiWNpqPRaOIX4vqQ/Y4ly+CsKiYkXAkrbzjLK5A4/drkRt5Fq4fp1ra2Pt70PBNfQ1EDY4gwtMSQ92Chv3Y/5VceLY3oytlgUpF9/bXYdu5Uetx0pJG1th1PWxNn3q58TQ0roY1WWMxQ84n0Y82/I/Q7/Q7CEfE7/mCtFna/EdLC1CifX3sQd/7Se+K+dFFw18t/1epfD4aQ4yMgl4Zu0jPfm3UMc4lMkBkJif0hnNKEAr/YtzS+gaNBHmbKavWpymB17E39m04zZcOPj5G061vxPGnMDfwxbh/Od2IeND+ZjG2/JPB0AnvSnoSfvxJj4muumTCXherL85na9YL3zm/fszFBsz8PESIb0rim6b4BqiyGtZ0ItWtNxZ0s+b1dpZtX8Pqd7pYy1a+CYdvNgqxnif1DWSJ/QjjLkML8iaIDrlYnYPkeLiJtbS1sKaNlay+bUBsALqZXopr7M9hNtBWr228SmzgKqc8tKb4+80xl5UOgwsvI32mLbfUvRHp9ZNwwxoO7p5LuHgNx7gr94qPuZy8HPJZzdYW5tpZzypJPt+VKPPt5Zvq6HlHA+vhbmsuZ1kTc71QT3qqZ81tLu35NcU1rNlQ7nOO0KndxKWqu8rXTXTDEvqmQKrHuxtYjdPFFOOGOYtM1x2rIcrQbBPj2GkXtT87talmVkd1v8+4vYBI+498ZoPxfw5Ew7RbfrPFe7Xr9PQkz46nN4+eSZq2xKnrm7mPwnjvqvsD5t8pXHe8l+ZRhvemkJCfmM9dftrVzGJJn3PAuHyGf+6UWj5xxONZyOLBcZ3dXv8MKhmeJxJuYnlqsvNbaeS+TnXmxszky/+DT8JbNo3/K6PB6/Uk8oo6nq7ufqyGQyKRTB/+WX1fySls+6yImAOk4ZBIJJaZRa+KRCL5/4o0HBKJxDLScEgkEstIwyGRSCwjDYdEIrGMNBwSicQy0nBIJBLLSMMhkUgsAvwfIEF+nokY0NEAAAAASUVORK5CYII=;" vertex="1" parent="1">
          <mxGeometry x="827" y="220" width="180" height="28" as="geometry" />
        </mxCell>
        <mxCell id="sNh2fQXsmdcM-SWCnf_G-9" value="&lt;b&gt;Permutaciones&lt;/b&gt;" style="text;html=1;align=center;verticalAlign=middle;whiteSpace=wrap;rounded=0;" vertex="1" parent="1">
          <mxGeometry x="110" y="310" width="120" height="25.75" as="geometry" />
        </mxCell>
        <mxCell id="sNh2fQXsmdcM-SWCnf_G-10" value="Una &lt;strong&gt;permutación&lt;/strong&gt; es una forma de contar el número de maneras en que se pueden &lt;strong&gt;ordenar&lt;/strong&gt; un conjunto de objetos. Se utiliza cuando el orden de los elementos importa." style="text;html=1;align=left;verticalAlign=middle;whiteSpace=wrap;rounded=0;" vertex="1" parent="1">
          <mxGeometry x="320" y="310" width="480" height="30" as="geometry" />
        </mxCell>
        <mxCell id="sNh2fQXsmdcM-SWCnf_G-12" value="" style="shape=image;verticalLabelPosition=bottom;labelBackgroundColor=default;verticalAlign=top;aspect=fixed;imageAspect=0;image=data:image/png,iVBORw0KGgoAAAANSUhEUgAAA20AAAClCAYAAADPoRWOAAAAAXNSR0IArs4c6QAAAARnQU1BAACxjwv8YQUAAAAJcEhZcwAADsMAAA7DAcdvqGQAAEfbSURBVHhe7d0NcFRlni/+7961ilgIzV5u2dxlMVwlxnElYSySqMPQJQnhuiZhMAFnl2yc4SW+kOBqiM4QMy9EdiCBuZKAayKsSya7ziRxnCTe9RIZpTNcnTRzHdNc/RMoqTQjW2lL/kv716Ktcev8n+ecp5PT3ac7p/NGR74fqknn9Mnp5zxv5/n1OefpP9EEEBERERERUVL6T+onERERERERJSEGbUREREREREmMQRsREREREVESm5agLXiqAXlz5yJvrwdBtSyZefbOxVyR3rkivURTIjCI7uYWdJ+dCS1iMvjR8ZDRrhpOqUUzkL+z1OgbHuoQe0SUAHEcTMq6c7EDpTJdcxvAIx4RUfKyH7SFDjgxHjEHYhc6sO1v6oCa43jl6WykqMVE1zLPC1kord6B0vub4FXLiIiIiIisTO2Zts89aPjuZnhWt+GICNgcajFRcgrC/1Yrah7LQ9MUnw1Kvb0MqXDC9YgLt6plRFff9LWB2JIhDURERMllHEFbLY5/+ik+jXhUZ6mXzWZno/rXn+L080VigEqU7ALo+6cKNLVN/WW8zsKDOP3pOfRU8ewzJZPpawOxJUMaiIiIkgsnIiEiIiIiIkpiUxS0BTDY04CKgiykqXveluaWYkezG/4v1SqK+cZ+3yU3GoqXit/T0PB7+aoHDSP3zAUx2FmDkrvS9NezHqxB9wV9Ewi804SKXPl3c5F2VwlqOgfDPqENTSxS2hl5+3do+6XouKgWxRSA740W7HioEFlpxvbS7ipExQGPeGVsYRMYfD6I7r2b1XaMfen4IGIrX/rh6RR5+K08LNXTaORh5L6N3kQu9uFCAO69Jfr6afvVnVJ+Dzr2VqBQ5c/cuUuR95B4P1sTYJjzX+az2H+9fMSyZXli36PLUwpe6EXTY6P5tDS3Ak19EXkfN92TU+7xbvyPrBNG+aRh86v6r6jLNV43/23gfC9anixFoZ4W8VpaFgofa4LnklohTGQbkGnfgVavkcJ4E1oEPuhGgyn/ZF6XPtkCd+SKEXk4mk8iz4tH3ytcAN62GpSG6oPYh5LaDgxGVmK/W9/XvGXmNHTDp16O65JH/G3JaP3eJPMoTn373IfeA6KOhvI1Tt0KNzq5iXw0vCP3bcdIHljWiThs1ds4Ar9vRc1DofZq3a7D+zuPeD+1vtznZq/Rl4j+oaM2lH+ivcaqY3byLYE6YqcNRNdro1+y6tst20CByNNTsXtMe2kYfxvxiPwy6rTM1xZ49aSY+xhV7qIuhbHbH+vE9uR+h9rYsrHroe39ESLX1Y9Dh+wdh/Q+/EFVHqLtb5bHr/9QL1oYd5sYyXf5aIBH1OnW7cb7jj0Rkb0+KmzCMNFfjbQluV973Tb6qoj+Qx5r2iqMfdUnIfOj+zGRhrRC/TUioqtOs8tTr82ZM0c86rV+tcjakNa+dYlad4m2/P4CreD+5doS/fc52pINzdrAFbWqMNyx0Vj3b3ZqOx8w1pGPeo98tV+rV79v3LpJW7JkuVawNle7Qy2bs2SX1vVmvZar3ic3M/T3S7Rd7tE36d+jttExrJaEhLa/UWv/SC0SQuvP2WPaU7X/S3LE/jxapVWVjaZjhVjPtEuWRvdzl1Yv8yczV+xLgbZ8iXqvObla/bujWwmtf8eqAm3jE1XaNlMehu3HR+3aRn35Rm3nM8VqW+Khp31Yay+Tv9+h5a7dqFU9sU0ryAmVTfg+WxvN/6o9o/lcsOoOtQ2RH1u7xLuMuiLyKVd/Tbznozu1XU8Uq31com3qGFJrCXHTPTnlPlJny9rD0ihF1onhf90ZVh4y3+XvBd87pv5WpUlPyzaRlxtH3/cbok2YK8BnA1rjhlA+q22p8ht5v1B9iEjbUIfYX/V3el0z15ElxVqzufGM5GGBtmlrrkqbef1NWldYGY+2zSU5xVrVszu1baGyXCX24TO1mq9d2zSSD9u0nc+J9fT0j9X2BdPfhtKj59M3Nmob1xrLjbatfCbydZXpvZ6t0opVHV2ytV2kOJ5Q/TYeuatEHqjno4+IOhGD3Xo7ZrmJfS5+Ype289FQfRXt2hPdrues3aRtEvut142RNjlHK37phFFGsn8wtfk5DxwNzwu7+ZZAHRm7DSTSt18RbUyVh8qTXarNRPfDo8ZOwwTbiEW+ntC3J/tI03bmFGtHP1TbEGz3x+b9VuuPtP2yibf50Xoq8n9DlbZLlPtG2YYt+rhI0e9j1NEVIl0F+vLw9m27L7cyku/ysVOr37NCPY9o/1Fs9lHCyHG6TLQlkS49r03Hptx9A2Mcl8P7j53iGLdCPdePQ+Z9MI8FiIiuknEEbVaP0c5+4KA6YK3apR0zH0WGj2m71CCj+GcWgyDx0AcbYb3s6OA9fFB51HRAEIOity+rF0SHH+qEnzkx0mFPStD27lGt3h3+91fe3KkOgju1E/GPDqb9XKIVHxzQQinW/mgaCD3aNbJ8uLdZa39/ZC3d0EsquFlrGsCZDyxiANb+oTkhw9qxF9q1M2GbGdKOquC44KUxDrxh+V+ldfnUYuHy26ED+gqtcUAt/OSYVqUf1DdqzYOmdIiBvJHGbVrXJ2pZ3HRPTrknErQZRg/i0QOLAe3ovhPa8B/Vr9JnJ7SdanC1883Qu17RTvxIladFGzjaayywHPwPNKo8zdV2qfV0fxTl+CPVrsyDd1Me6m0nlLbLJ7Rd3zCWm8s41DZXPHNstP7JQeazxoBqxXNGQQ4cVAOs6mNhg57L75+Jysdwl7WuRy3SI7Zy5qXRAeNo3l7Wjj1h5NXGF8+Y3mu0PLd1h7eBcOGDrjllzUZd/+Nl7YTaJ/1hrhNWEqi3ccvtGzu1Y6H6LVx5e5cxCPxGo6g9BnM/MDrwDU+vOe9GtiGCjtEgIoF8S7COmPM0sg0k1LdfFnkq1xXpbh40FulEXT7zYbwyleK0w4m2EbX4sjuUr+Ih+59Q3yaCYat8sd0fi/QZ2zX3T8InIr9VHo2/zctyN7ZRIMrdbPj9IfFqHJ90adv09xH17uXR/dI+O6MdHQnETUFbIn25FXP/HvGIF7TZ7aOkkeN0RF4P/SzUxsY6Lkf0H+aH+tCz61ERBC4pEGmOuyEiomnxn9QJt0niwbHn5GUFTlT/sBr5TmOpzpmP7X9Xpj/t7bS6dKEch/7HeqTGmJWh8plKZM9Wv9y0FmVb1PPS7Si/OzQvZSpWfmu98fTCx7YuF7Ht62WoXmneISDl7nxs0J/58LHlJXIWMrbjB9syRmfSvC4V679XC5d83taHfpVo5+pyrL89fL7N1JVFxnpv+sMuFQopf/4Q1t9szkAn8h9ej/SwzaTCVahvBW6/jctclLK/q0XRTeoXwXF3JWofl88G0P4b41JMOeNbi9iks0aUya2mdNy0EmvXySet6Le4ZC863aOuermPyEBZlQvO69Sv0uwc5H/beOq7pN410Iee/TJf83HwxdqoNlC2OrwOmXlebxQtSKxWVYtq83rXiXKs2A699bzRAfd5famJC7XfE20nlDaHS+S38fejZRxqm0XY/ki+aSbXFGTnF+nPBt56T2+Xjtnz9N/xf/phvhLKcXu6qFFx+N3oapNP8sPTI94j/Ts/QO0q9WvIxV60HpYVphbbt6SbJmQR5VlopKnV857tyxurHyk36vp1Drj+qmg0rWPUifHW25BQuRX93XbkzzeWSSl3rxG5LXh78V5kma2qxQ9KQtMzifQWbkCm/jwT2ytG8y7l7rUo0nfEDX+ojxlXvtmpI/Ek2LfPmoVZ+pIz6H97cDT/RV1Ovzm8X0vEhNuI+s2xci02ZBjPMysex/pQ3zY72zJf7PbH3jcaRY9opK9ypH8S5rtQLfqySIntj8hT1Ree8fSHXS7ovD017uzM/r4uUYuF1aLefds0LdjsdJSFjj8mE20TkbKrOnHu//0Un376MSq/rhZGsd9HhXk8PK9TV2+AcTRI4LgsZVWj85xM46f4+PFsscCJoudP49NzPajOsj4+ERFNp3EEbVazR1ZDdnG46MOAfvRai5zM6E7OkekyBjFWQce6HGSGBucW5t1g3p4D89TxzZWdGXawcv7FberZ5Ate9KK7rQlNtRUo/FYhspYWokm9Ztt9OWL4H+Hm24z8wzACn+lPdIGzbnQ0N6FO3kcl76VYViGGbrEUIed2iwPLlwEM9nWg5UCdfj+evLdt6fbYW7EmBieZkUOCFCz+S3Ug/cw4ePs+7NZ/+nfnjdwnYDxG71EZCW5GxEi3kgzlPiLoh7enFU0HalAhyr/wrqUoPKBeCzk7gBb5M8OFZTfrS2zyw/eB0SrWZi8zDcSV+ZliYC+fmAbvIxy43hghj3Cm5qhnykjb7Mbmr5nLRjxy6/RVQu0ydX0tauUHFKcaUJJm3PvUIqK3MYdoFwbRIX9a7nsKro+sQv82JFIj+Ov0L983pyltk1GXEgnCU8wB9Y2LEZEDMY2v3oaMllv3JuOeqNFHHoyctSgzx/XhZTx/gQooViIj7DsgnFh8j3oaMq58s1FH4km0b09xofyo/FoLPzq2Z2GRfp9RN7yJDKKjTGYbcWLBLcazleEZHjNfxu6P/Rj0xk5fyg3qw5ARie5PClxb21Am2pb/5xXIWiTvF21At3FjXly+s3rLROaqZSOB64hZ14f1pdLE2kSkStQ+na8+8EoJb6dmCfRRYW6IaEvOBRjP0aDymdEPI1KiqzgR0VU3yWfaQmbJD1qnhSNsUD9VgvA2l2Dp11ag9LEWdJ2+jPSsfJRVlCNfrWGb1QHLP4wh9dTgR+9TeVi0vBCb97XCc34eMu5di/Kq9erTeJsu9mLHmkXIKtiMhpc9GJydgfyiclR/O6GtGP5U/TQJXOxXz8Klr6vE7rrdlo/8WKdSEzQ95T4q6G1BydI0rNhYgZZuLy7fnI38v96O8tVqhUj/xRE1ELJrVspUNh4Xymqsy2Z3XaZxdkp+Vcdrv8PpV/aJ/Us1JuApSMPS8o7oT7mtJLrvtxah0jI94iHef7pKeqL11vWdWsu/lY9M0xm4+Obhers7fFXyzX7fnrruIE6fO44jNeuRDhHQ7y7Fiv+WNymTOkxmGwn/YMhK4v1xoumzvf5NRTj4u3M4/o+1WH87MNhZh9IVi5C3197XI8ybnVivNDl9eQJ1Wmejj5oCY9cDIqKra3KDtoWp4uAs9cF7Vn8SJjjYb3xCvMo5ZR1vPN0fRgw5L/j0S1nGFOhDa3WvOHQX4cj/PY3jv2rDvppKVD5cqPY3AV5f1MA3ODggckxwZiJ9ofjpbUfdCx4goxrH3zuFnl8dxO7Hxfv9rUsc/uzz/qoOLaeAzKeP4/Rve9Dz/G5Uiu2U3ZPIVqRunFEzNo7y4b23jc88199qfHbrTDXOvA3elI+tMr0Wj7Ks8YYyE/DqUESeizJQk2vaI783agd6xe4WtZzG6V/3oO2ntWJ/tqJQDJzCzHeqS6a6LS7RiseJVPWBf59V4/l8EP098okLTtsBgMlI2wSy11uXTeXj+aZP4R1IXV2Ofa+cxqf/tw3lGfLT/c1oej3Op+sj++7BQOSZjuAZnHlbPQ9xLjbOzpxNRf7DVukRj9Kp/1L+idXb0XLDnRss/1Y+8hM66zqGq5Fv4+3bndlY//QRnDr3B5yskx9xeVD3xItIqPmNmOI2Eovt/tiBG9Vlllbp84k8CjfO/bnOieySahz57Tn8wS2CJ7HIs7sKL8bJVKdTXRLvGYg6cx388AyiUnY1+vKE+ygiomvLJJ9py8CaGvnZ4wBqnmiAx3x08PeiYY9+4RiKStdMa8ebeotxAMLhLvSOpCmA3hcbjYHGWD4LYFh/sgAO08HT1/li4pdH9jSi5XXTBR4BD5p+3KBf8pFZsca4dPKLoBFM/hcnHCOXjAbgfvnFiMtx4gt+ZoSk85yO0U/dA260Hk708kig4YWWsHsofD/fhbo35LMyrFX3+qVm5xtnHg/UoeGNiItYAoNoPdAdfWnLVPpzNbhFC7reGE184I0WNOqDodj63zeHeUEEVBCyQAQmIy6048XIyyNvXoMy/Z6PXtR9v0lNKa6INtAamS8mGfm1+if3A7VP6tPXj/jSj9599cZll+vKsGZcAUAGVlbJtLtRt6c1avps/xsiwNe/ZkOU7Sl3+PTtN2UiRzXYfw/G+Tz/5mXI1ytwKxoPuk2DQznVuqgTkbt+Uzby9TOVTajb2xsxZXwAg21N6B7zqzgmbqL1NuOb1Xqg4t69C62RX90hyrzu8PhClJimKd/C20CCfXvAC09YXjiQka3OS/ntn2kLT8NUt5EYbPfHKViWbdzbN3DwAFrNX6tyoQO7ftyrfhmV2P4E4H3HdH+g4Ph6jjrbN4xgnKn7U+/MN9Zra0TjW6YtmI4/ZlenL7ffR00PTvlPRMllkoO2FGRX7Ff3w9QhT15zX1CIQvk9PWkl+vezZD/Sid0lpoHvNHDeW4Zy+Zb+JpQsz9LvR8tbtgh1KfkoN1aJb34qMvXBaAtKvpGn/728N2zzxUx7f2+WMQv929OwNFdsQ94XtzwPdfJ7a7JqsX+LutstFGy8uQMFdxnrFd61Aq3X5asgxJ5QsOp+ssAoB/l+rlak3JfIVgzZH7WLtBp5p98XVy6/N8mJ9f9YjaJQIHtzGXY/ny+WetBQnKZ/f5C+viz/RVmoePcLteI0WZiPsi16waOpeLmRByLti36cgvxHjFXCOZF6u1E3e7fnGetvl4MTh1huDI1airOQJ/dJ3tPyXT8yo7Yj8qRO3Xfyeg1WRLSB0Q8NoqVkVWL/D116/tWtWTSSf1lfS0PJfo+oI+XorFsvXh+PFLgqDqMyS6RLvx9mqdoP2RbmIq24AQE1+Pe/WYi0r4myfmgH6uT9m7kF2CyD3JvL8WDEZDzhMlD2w3J90O7ZX4hFy4y2Itvaxg/XoFYPZs1SUfaTg/p9JJ79JcZ7qjRlpS1C1mP9mJYaM8F6m7JyOw7LiQv8Hai4a9FI29a/G1H2e/G+o25cpjLfYrWBBPv2zwbRqPKiota4nzarrEG84IRrh/pwKqZYaZjqNhJDAv2xo7Ac+2QeybqwfOloHt3RjNseiZ6IJLH9CWLwhSyjXT1WY9xbd9dG6Lm6shprYk7wIWSUofYRvWWiYW2ojoo+bNFGnPmr2ujjylXpy+33UdPiYh/a23wiMSKIfHOSP3ghIhqHyb+nTd4P86uT6GkoR1FWCgb73HD3Xca8+4xLrV6pvwqXN8zPx7P/8wgq70uH0z8I9/vDSP3ucbxWs8bewT1F7NO/dKK2RPz9eY/+9zcWHcErT8uDbYJueRhHft2JstRhnHnTjUGkI//xIzj1y+rRWRIXrsch90H9fiL/ByL/hmYhY0cnDpUmdnu1s+QQTj5fjvyb/Xo5DP1pBp5qP4SyhK/pBNY8+wpOisHFrCGRnlM+pGaJg/prJ3FkZAY8Q3ppJ06+tg/l67KRItMu9vHMJwuwpuYIjtdP8mBqTA7k172GI4/nI90p8+AMhlPLcbyrFmtiXD6VXfEK9pVmizqq1nekiKGEGLBWtaFT3pvj9MHzplj+n9fiSHs1XFbbkfeduE+hraYMLnnfiWwDHzmQs2Uftt8bLwfk+/RE5d9lUX/LGzpx+pf7kB+a5W485ruw+5ehdAXFfsjtDwGZRtssF4MlKfXuWpT9pQNDr7ag4UArzny+GGU1bTjlFu8fI99CHKv34eQx4144yLYydAW3fVfs0/NlWKzWCXNrGTpP9mDfliJR/0XblGkS7WvB6lrRTvZjvbxceBpMrN464Kp7Baf+WeTbynQETxl/P4RMo9weMaYZmlRTmG/WbUBIpG+fL/o1kbbFn59B64EGtLw6BMc9Yj3RZ/Q8HD9kk2KmYarbiJWE+uMMlP/iNdHGZF+h0j47H3//21dQvdLqsvRE9seB9NUi7/8igDNtTWg43I2h2TliPfH3vyofIxAWfWH9SRwXZScv1ZVn04f+v9tQLvvwb1u2zKvTl9vso6bFwpXYUCpqtNOF2lVj11kioqn2J3Lef/WcppC/s9SY2W3dEZw7Ot3By3h50KBmwKv99aeons4DJhERERER6aZo9kgiIiIiIiKaDAzaiIiIiIiIkhiDNiIiIiIioiTGoI2IiIiIiCiJcSISIiIiIiKiJMYzbUREREREREmMQRsREREREVESY9BGRERERESUxBi0ERERERERJTEGbUREREREREmMQRsREREREVESY9BGRERERESUxBi0ERERERERJTEGbUREREREREmMQRsREREREVESY9BGRERERESUxBi0ERERERERJTEGbUREREREREmMQRsREREREVESY9BGRERERESUxBi0ERERERERJTEGbUREREREREmMQRsREREREVESY9BGRERERESUxBi0ERERERERJTEGbURERNewYCCAoHpORETJiUEbERHRNcrbXIilixZhaUELvGoZERElHwZtRERE16QAhgfd8Itn/r6zGA4YS4mIKPkwaCMiIromOTDPqZ7CiXkO9ZSIiJIOgzYiIqJrVMoNmcaTVU4RthERUbJi0EZERHSNcjpTjSeO65FiPCMioiTEoI2IiOga5ZivgrabbgSvjiQiSl4M2oiIiGa0ALydLWhq7oBHziqiBM72ovVAE5oOtKL3rPUsIyk3zDOe3MAzbUREyYxBGxER0YwVhGfvNnTNWobUjxqRt2IHei8MovWxPGx7PYjUe3KQkeLGtuXLsflVU0QXMt8Jl/hRlMo72oiIkhmDNiIiopnqfDvqfRuwvTAbOZmpgL8F24qagL97DW2PF8GVlQ3Xww+jDH50/KpPn94/zKzrjcsir+N5NiKiZMagjYiIaIbyv9uLxYUuPfDyDXaL/51Y+cNalN1qCsKCVxBUT6MsTEW6+JHJM21EREmNQRsREdEM5ch+CpUrZcjmRf/rcskGlN0XEYCd9aJP/rw11XJa/xS59Dr1CxERJSUGbURERDNUyk0ZSJ0tnlwYRL9X/NziwrKIKx29v2nHgPhZeU+GsSBMKhavy8HiG9WvRESUlBi0ERERzXCB9/shL450ZaRHTN3vhftlGbKVw3Wn1X1rThQ2HkLhQvUrERElJQZtREREM9zguy3i/0zk36m+dy3E60a7V4RmVYXQr6K86EbLq4Nh97ilOByc7p+IKMkxaCMiIprRQvezrUTGrfqCEcalkU6U3ZujB2a+t5rgvW7BSJAWPNWEktw8lBzwxJ6shIiIrjoGbURE15jAOw0oeaw7evr3ZHKxGxUPiQDjc/U7xXYx1v1sQfz7sLw0Mge33SJe8Hej6ec5KF8duoDSj94Xa9B7yoPe2i70M2ojIkpaf6IJ6jkRESWbz33w/J8hXFG/xnL9gtuQcbMTKWPMAhg81YCC7wF/312NbDmBRRKbSWm9qkQ+zc2tQ9E/nkNbSfj8kMHfN2H9hkbMKtmAlLNfoOx/7EP+TepFIdBXh9LNrUDpYbT90PjqACIiSj4M2oiIktn5DlQ82Qrfl8M40zeonx1LzXJh8RzjZcMVDL3pgc/pQuVP9qG2JN36HqVLvdhxVz1SXzmOSquJBJOQ91Aeige242RLkeV09SQFEQgADodlqYuXAwh8AczivWtERDMWgzYiopngfCsKl1XAjXJ0/mEf8iNPiQS8aNq0AjVvOLH+6EkcWRcZ4gThrl2KLTiM03WumTN4/9yNmmVb8EXj77DvPp4HIiKiaxPvaSMimgECg14RsAmrMpBuFbs4MlC0vkg88aNjfzvkLU5hzrej6cACbF8/gwI2abYLD1YsQMu+1uh9IiIiukYwaCMimgGMKd2BzNXLEDGp+4jAJZ/xxBuMmgnQ01GH3lVbUTRDLos0y7h3AzJPNaKrjzNlEBHRtYlBGxFR0gtN6Q6svD1iTvcRfgx65EyBwrrFEYGdB+7D/rgBX1LLyEGR04/Wd3iujYiIrk0M2oiIkl1oSneUw3VnjIsbL/ah61X5xInK7xSGT9rh7Ue3P17ABwQv9KL1QBNa3/AhoJYh6IenswVNYnlLpwf+CZ/oCsArt9fcAU/o+wb8XnS3NenLvJfUsijpyCwUq/b08xJJIiK6JjFoIyJKcgEZdMknse5ngw8dP94p1nEi/yevoPbe8MDO/+F7GIAL6akxAr4LHdixZwipX5+F3uKlKD7khf+tOpRsbMQZxzLk3LMA/n/IQ9r9DfLKy3EKwrN3M34x+y6kf9SIvBU70NEjvy/uF7h8kws5+F9YsbYpRlDmwIJbMkXw+R6GkvrL5YiIiKYGZ48kIkpynr1pyNvtR3pND44/skwtlS7D13cMLc0NaP0oE7UNh1C9OnpifO/+NKz4cQ6O/D9tWL9QLRwRhPvHBfCuk18D4EHD3DzUOZ1wRXxvl+/npVha3o3aX3+K6iy1MBHnW1Gybx6OPF+EYGcp0jaJMDSrFsfld7B92CSCuBp4sB5t546gyGJuf7/+Nz7sPvkbe19XEOhF3UNNYpvj9PVKsf/5/N4yIiJKCgzaiIiSmhdNK1agxmv1/Wxi2dJCuFa7kH9POhwxvljbs3euCPpEgPSpCJDUslEiUMvtx5pfVyLjQgdK79iMbhFMnfyf1cgwnZjz/VMhlm53jztok0FX3axDOFg4C+7aG1F4wInq106jdmUKgu/UIWtNA/BIJ07WWwdKwbdqcOPapoTePxgI4Av1PGGzHIj1tWdERETTjZdHEhEls5H72Yrwg5d60POr8MfBunKsXxk7YBtbOoqayiBPXgXeNy7DdP3thrCATd6LNuiVXzhQhMXj/IZrR/ZTqF4lw7Gz8L4ll2zAymzjTVLursXpTz/F6RgBm5Rywzz1zL4Uhwi8xvtgwEZEREmEZ9qIiJJY4PUdWPRgC5CxGydPVurBVaI8u+cib2+sM22jjPUyoy9BDPRix6IStKw6iNO/KpvYDJShs3lbOvGHnyZw+eGpBszNrRv/5ZlTbO7cueoZjdenInAnIiJrDNqIiJKYEUgBzprjOPd0vJArtviXR4aELsOsRM/Hu+EynWkKBY6ZPzmJ32yb2Be9hbZV1HIabd+2H/7x8kgiIrqWMWgjIkpao/ezlf/iD9h33/imxYg/EYkS8wxYAN2PLUJpWz4OvteJspuD8Ha24t+/WQ7XOC6VjHk2bwyciISIiK5lDNqIiJLV+VYULquAG0XxA64x+F/djLSHPhZBV48IutTCCKEzYK7G0+j5jukMWOjSyNUHcfqVMqQG3ai734u1cuISfYUgPAdKsbMbWLunDZVZ8U5PxT6bNxbvoW9ixfdz0PmHfchnJEVERNcYTkRCRJRsPg8gEAjA+2a3CNikdDhukMvG9yVpzluWIVNsadAX++8HvV3i/0zk3xlxyeKlYQzKn9m36feyeZv3Yahiw+i9df5eNNf2wnOqFzV72uFTiy2FJlXZ4sKyhC49DGD4w4E431NHRET01cagjYgomfi7sfm/LsKiRYuw4sletbABJeL3RYu2oXs8Xy59awbynUDfB2fVgkh++D4QG3YWISfy0sOb12BrqQjXeltRs70E9dftxqF1pusinTl4cJsLTvnP6xdbiuPfhvTZKYvuyUzwssNBDPSIkPLeZRObBOUq8HVWoGS/F+P+TvIZxv9qBUoP2dtfec/htZIvREQTxcsjiYi+8uQXaC9F4e9rY8/+KM/u/WnsyTf0ST2uE6/PVgui+NCxsR2p/xxvspMgxGbgSHSGD28TvrmiHRsSvA/uavN1bkZB73/Hay3rZ1ywOX5BePYWYCf+Hq89nY1YJe1tLkRxtRtYuQ+vvFY+rllRiYiuJTzTRkT0lZcC17rtyHzzRXTr3/lmYXb82RL17zyLGbAJgUH0OzORrn61lpJ4wCZ432rHwOqtKJpJI3sRaG7+/p9h/0+upYBNSkH20z/F2t6N2PZqrPOuAQwPuvWzsv6+sxgWgTwREcXHoI2I6FqQUYbaLcNo7HBPySVpvldbgdU5kz/b4udu/OLgMCorNsyg4MeH1h/XYF5NJfLnq0XXlAxsfWYD+p5qQO8ltSiMA/NGrrB1Yh7vUyQiGhODNiKia4ID+VX7sfLndXgx1tm2cQqebcWut9eicpxfSRCP95/q0P7tw6i9N/EzdFdL8K0W1L1RhrLCa+scm1nKvQ9iu7MF9T+3rmwpN2QaT1bJuyGJiGgsDNqIiK4VC4tw6F/WoOuJBng+V8smwReBBXi8YfIvAwyeasCTv1yDf/6eK+a9UcnHj55/aoL/8fXX6Fm2kAy4/joTnue64LY4tet0qtriuH4GlS0R0dXDoI2I6BqSklWNV54F6qu748/0mABHVj4yJvsk28Vu7DiYgp92VyM73r10yeZiH7peBcrvWXbNByMZ2UVw+lvhOa0WmDjmq6Dtphv5BeZERDYwaCMiusY47q5G5/NiQK1+T0oLi3DwaCUyZlLAJgS8/eiGCxlxvlAueKEXrQea0PqGDyNzcAT98HS2oEksb+n0wJ9Ec+FHpzcAX18HWtSymEm9NRNr4Ue3J/oSyZQb5hlPbuCZNiIiOxi0ERERTRLfB/JLyjOQ+ufG71EudGDHniGkfn0WeouXoviQF/636lCysRFnHMuQc88C+P8hD2n3N8CbDIGbSO+2Z4dw2z0qvQe60fFYMWp+Pwt3rUzH4L6l2NETY/pHxwKkZgADA0PRZ3XnO0VoCxSl8o42IiI7GLQRERFNCj+GBmV4Mg/XW54+CsL9UjPSHymHa+UyyKk4PM8VY0vfShx5ZTfKVmcjO2s9yrYWAafqcMzissLpZaR3WUW5SJdKb20V/teqI2h73IXhn21D0zvAsbM+Y/UoTiy4Rfz4wBcdtM263rgs8jqeZyMisoNBGxER0ST54gvx37rFMSZl8cLTtxYu+X1zF3wYkItuKsfup13h93UFk+WLy0zpPX8GfXLR6lr8oETu3WUEZCTmdKF6dawv0HPgxpvED28w+hLKhan6d/pl8kwbEZEtDNqIiIimRTqKmsogQ5zA+/LeN8D1txuQEXayKYBBr1v8LMJim/FM8IIH7j534o9Tce5H05nSO+iFTJWr0KUC0lSs/+dz+PRcD8pjxWxIwfU3qKcWUuRdldepX4iIKC4GbURERJNChEBfqqeWHEi/3TinNvhui/g/E/l3RpyTC/Sj97D4uSof2fIs1VVlI73jlorF63Kw+Eb1KxERxfUnmqCeExER0bj50fFQGjbjCM4dXR9ndk4vmlasQI23Ej0f74bLdKYt8PoOLHqwBZk/OYnfbIt5CmuahdJbjeOf1iJbLR1bEO7aG1F4oFb8XXXU3wUDAREXOjh7JBGRDTzTRkRENElmzRL/vTqEWFNz6C4Mol/Ogr/FhWURl0a6e+QZrXxsvU8GbEF4O1vgnqwv1BuvkfTm6Peh2RfAxxfEj4wUy8AshQEbEZFtDNqIiIgmhROL0+X5tcu4EudmsZH72TLSwycgCfSjr038XF0E183iZ7AfXf/wBf7sKs/VETO9Y/Jj+EPxIzs9amKW4KkmlOTmoeSAZ4z76oiISGLQRkRENElSb18r/vfC92/G71YGvfK73CzuD7s0jEH5M/s2PcjxNu/DUMUGfSKQqylmescSGIbPaxXs+dH7Yg16T3nQW9uFfkZtRERjYtBGREQ0SRzpGciHG97BWNP2++H7wA84i5ATGY3dvAZbS0Vg1NuKmu0lqL9uNw6tu8qn2eKldyxnB9BlGew54SqthsspflblR1wiSkREVjgRCRER0aTxobV4KSpu78HHdS7re7Y+DyDwpw44YgQrcoKOL64Tr89WC662MdIbi/fQN7Hi5Q04ebLyqp8tJCKa6XimjYiIaNKkYu13yoADHei9pBZFmh0/AJITdCRNwCaNkV5rXrhfHkD+I0UM2IiIJgGDNiIioknkKCzH7qxWtPbEnUPyKy341i/Q6K9E5boE74MjIiJLvDySiIhokgV/34CCDX489dt9yJ+vFl4zvGjKLcbwM6ex+96ET9EREZEFBm1ERERTwNe5GQW9/x2vtayPmvL+qysIz94C7MTf47Wns/k9bEREk4SXRxIREU2B1JIjeC3fjar93mvmu8j8r+5A4w0/ZcBGRDTJeKaNiIiIiIgoifFMGxERERERURJj0EZERERERJTEGLQRERERERElMQZtRERERERESYxBGxERERERURJj0EZERERERJTEGLQRERERERElMQZtRERERERESYxBGxERERERURJj0EZERERERJTEGLQRERERERElMQZtRERERERESYxBGxERERERURJj0EZERERERJTEGLQRERERERElMQZtRERERERESYxBGxERERERURJj0EZERERERJTEGLQRERERERElMQZtRERERERESYxBGxERERERURJj0EZERERERJTEGLQRERERERElMQZtRERERERESYxBGxERERERURJj0EZERERERJTEGLQRERERERElMQZtRERERERESYxBGxERERERURJj0EZERERERJTEGLQRERERERElMQZtRERERERESYxB25QLIhAIqudERERERESJYdA2pbxoKViKRYuWorDZq5YRERERERHZx6BtKgWGcbbPL5744R4cRsBYSkREREREZNukBG3+zlLMnVuKjotqwVXk2TtXpKUBHvX7VeWYB6d6Cuc8ONTTcbvkQdOmLKTNFftY3i1CwZlInn1Mw9LHxpN+PzoeEvu+d2Klm1R1ZMaanLK4ai52oFS0o9LOmdmKxuZBg+wnZmD5XL32aeTZTKwTvs7NSMsVefa5WkCUjC71YseyNBQe8MLOTSOBN3ZgaVohmn4/824xuZrj4mQc4xj5wXHXRPFM25RKQUqG8czlHAnfbAiKRpeHtPIO+NQSGew0bchDjc+F2ld60HbfhEPAq0P0vV+op9e64KkG5KVtRncSfNhBRDPUhQ7UfB/4+5eqkT1bLSNKRsGgrWAtJCjWp2QUgPdQCdJm6oe2MxiDtinlxIJbjGeOG1KMJzYE32lA1eFlOPST9UhVy/D7Y2g85UTtnn0oW+1C0TrX6Fm8SROA5/AOlByawvvvRBRb+do5nH6+aArSP7OkZFXip4/4UPXjmXrWlMZ0vhc1j+34ygTmgVMt2PFgE3iHbpIIetHw3WZk/sshrL9JLaOp8RVry1fFwiIcfO8ceh7PwOiIKPa4w1l4EKfP9aDy6/bHTzS1At4O1BQsx4rv986QcYsPvbUV2NHz1RhlMWibUg7cqA6kqfPtnhnz4sVnGuD8YSXy56tFQmDYLxpIDhb/uVowJYLw/aYFvZ/x063pkYKMR2qx4a0qtPQxz7+SLg2gqW34K3N2OejrQ8vriX1aTlMoJQPVvz6O6iwOaqfcV6wtJw+OO2aE8x3YfFcaFq3YCe/StShSi5OfHwMHWjH8FWm4DNrsuORFR3MTWjo98H+pln0ZwOAbrWg60CQ68l4MXlLLw6Tg+huMZ/NsnmkL9nWh8UI1KktGzrHpgp8Pq2eUlMZbR2a78GDFAjT8vJcT1RAREVHyuTQE7+3laPvt79Dzkw3IVIuvXUH49PFdK3rPj47eghc9+liw6UALOk75J/0DzsSCti/9cDfvQImItufOnYu0uzaj4Q1f7ESp9Utzl+rrz527FHkP7UDLO5HDU9OkBoFBdNSWICtNrf9YC7xWo1mxXvfeCuQtk+vNxdLiHWj9fexhb/BsNxoey8PSUDoea0D3WRvZ+bkHDU92YdadqfA9l4cVT/XCd7YVFWu2oTeYipx7MjCrbxuyRF5YXTbhdLrE/0VYbOtawCD632iA/9srkROK8dSECWmbusUv3dj8NWN/R26Wj8zjtCyU1HZg0PKGdBFE9DSgokBNZjI3DVkP7kD3+dBNomnY/KpYbXeesS3xaDhl/KVuHOUZPNuBmmJjfWNbMSawUOVZqOrW3GV5qDjgmVggM0PqSMa9ogNsa0evzctu7KUzGFHWcr0meGxlaACesHZegh3N4y+L0RuQVZpU/bHebry6o/jdaHmydKRcZV0pfbIFHssPTsTqffKSPpUPon1s3ivK5z/Uiyaxb5SOM+mKRVoqDsl9UhOB5NaJlUbb7dyHOsTWRgU+kGVZqPo7mSeFqNjbHaP9WjO2MVofSp5ste4zlcA74flREifvRoT1Q3XI099LPMLyxKJ/KahAQ8+g9TEiwfaZSLkbbWQ0X5fmVqDp1HhrcCL7ZbSdsP74yW7TvcnWRuueeK/OmpG2J9PdEpEnidXT0clV9Pakyl0eu0PbNS+fu6wENZ3W5WWr3znVIF4rRccFkQ8HNhv5H1bnpz4vdZ9H1C2Rj1HvEUqr6Hf9fU1h/VJNj/ldbLZlG+1qpOxE+uQ4R89Lc3lNeR0frQ9yYrOWJ81jrVjHu8ksM9P7C0Z+xBl3mMpIXubWWixeL261rAO+thKxbgW6TXllv3+dwPEy0XGxnbop2Crf6RrjSFnVOPWP1Si6faLzKUT3cU1RY8josou1Xrx8MiZkyRNHLNFyN6mxpXlymITGz+F8nTvQcD4VGbN7UbKsGE1esa3dJSg9eAaOO3OQs9CP5tw0FOy3N+mObZptQ1r71iXanCUF2rYXurQT7hPaie5mbdv9d2i5q1Zoc+Zs1No/UqtKn/Vr9fdHrN/brtWX3SHWXaJt6hhSK0rDWnvZHG1Odb34mwJt58+O6esf+1mVljtHLH/gqHh3E7ntVWJ55katvkOt21GvbczMFWkRy+fUa/1qVemKp17fTu6jzVqXTIe7S2vU05GrNQ6olWIY+lmxtq37snim0ijSfsejR7Uznxmv697eJZbP0TZ2DKsFo4Y7NorXIvImpgGtfskcrepf5fspV4a1AZHmrmcLxHYKtF2/lOk/oQ18dEV/uX9PRD6oPFuytUuk2EyV35w7tI172rVjej4c09r3bNIa3xVv89GAni+71ortVTbr25KPM5+oPx9PeT5apVXJvDLtzshre8wlZCxbcv82rbnbeN+ufcXaEllm+wY0Y08lq7+NYQbVEVGK0eUeg910DhzM1csq1JZkW616YJuNehhq58XarpE6tVMrEOlb8sQxbTSF9svCaAO7tPaOTdrysnqtvVemW9S9H6kyFtuIKmPLumPsv54WU10xylX8zZJNWrtPragMifdcIsqjQNTpUH41VxZod6zK1VZElIeRzvB6YbDe11BZmNOi5/Mzsu1d1s7I31/cJrY52m5PvDs8sq9Dv9ym3SH+/o6RPBH1/oVt+v7NWSXSYa4/MYTSMLoN2aY36vsnl0emOZQfxT9SfUDvUW2n3q6rtGOhtm4lrB8S+yv/Vj4GQwU0pHU9KuuhuX8x8jq6jIVxtE/b5T7QKPZdlPn3jo6m4wnRRi3bnplIk0hreBtNZL8ua8eeEHkp9qnRlMZNOVZ1KpxR96q0+j0Fo+kWZVOl50WxdvRDtaKQWD1V+/RsvbbtgZ3aUVlHQmUuj0tvt2ubMou1ej29x7Sj1aLfEHkX2RfZ7Xc0sZ7cbtUTG7VdvZH5PT15OVK3VpmOJ8+JNiHf46ApsSqtu8QxcHlZ48h+1W+QebNE2+UOpcZGW7bZroyy26ZVVW/Tjr4fncfTVsdfFMduMdYKG8vJPIvqQye7zMLb2JjjDlVGoePW5W6jDMztwTCkHRXbWPKjE6NlkkD/OvHjZQLjYjt10075TuMYJ5pRjrbGYkoifZz2Ubu2Ue6/6bhttMtcrf7d0Ro3Vj5dHpTLRHmItBY8q8rHPaANq03YHz9HuHJC27WqUYzYBb2Oir8RdWDXm+Y2LerG30SXw0TZDtqMDBcZ5jFlmPTHAa1Rz3Rz5bwiMkNUWItBlPGaPDBs07pGOrPQYDd6+0MvFYvlK0yVKs62h7u0KtkgzZl0RVSub8zRVjwbMWiQGSrfM2wgGkmmS3S6+gr92i5ZScX7dkU05Ctv7hTvGXmwV/TBus1C0yuqeV9HGfkfHfwN/DIiOBDOvCgHVmJdU/7onZJV+YWxHpyOvzzNy0Ks3mNYNJYTEeVwRTtWLbexy5R3sdIXaYbVEbVfS0SAGpftdBrB/xyxXqJG6llEvl0R9XhFWN20WxahbVql26p9q+1a1R21/0u2tos9jhA6gD3aNVpWenuKHFgYBp6TdTa8PIx0WrVVi3395JhejyzTYhYx6BgRJ22aTwykxbZXPGevPlilYbi7Sh9UhaVZvefGlyPWFnm3S9Yr86Ahhlh5ZCy37l+MAe3E+3C75T6wTx7czf2G8kf1MyaxLcs6YXO/RNo3WeXvmO8beh+L+vDhUa1YLDeXTUL1VO3TnCU7tRPm44SqC9H7Jo7nIq/D+rxE+kc1gLGqu9OTl6pufUOUf8Rxcehl+f6hvloIDbYi69VnJ7Sdsg5G9vtjtGU77SpUzsaHfCbTXMet+nir/Z78MjPeP/w4GOdYEpnnl0W/K/4+qq8Sg/cVYvBe71G/J9S/TvR4aZE/8cbFNurm2OU7nWMcK6oeWZVZDKG6b6eP0z46ph0NC4CEz4yyN5eTvXZgVecMdsfPUUS9DAXZRtmJ/Qo7wSAZHyRY99XjZ/PySB/6Xu0GSrejPPKG5+syULQ14pbEYD+6dg8gs+JxixmtUpBd+jCK0Iou/YunTQofxoaI7afe6UImBnB55HSlF8dibdtZhA3fUc+V4DtdqPO6sPWvs02zFUmpyL5PpPvwAAbVkmgOZFdVYqU8G+ztR69c9O0y5C+UT0ad/aBP/5m+0OIayOvEu4rFEblm7dKwyOlULDBNQDKWjHVlSI+Y5jk9c6X4vxtDI9nrwbHnPMis++n4blgfd3mKsrO1L07kl7oivscuBZnZsl4NwmfzssFRM6yOiP1PvR3wfxn/JLr9dDrglF818abb5uWQIT4caxPt/PGtKIzIt5S71yBftMP+sxFlbJtVukXK15WjXG73g4gLXizqjrH/mdheYZpVNWR2NsoeFXnQ1gW3SqLvN12iFZRh+5bo981YJ+vs+PnfakWLvwz7zTO8JkBeCx8rbbhpPR7e4sTAwWPxZ2n8/bGY+eEs3CC2Hs54z0ps/VbE2iLv1twHDHgGwy73sk/VG6vjg5Ba8jDKnQNofCO0N+Npn/bL3eGUd1u44Y68lOY69dO2BPfL4dAvg+9/0wNf6L5Wyfb7FuHhyDZy8zK4RFseuDzBC2y+sxYu83FiYTbyV4mfq8oijrkZyBF1AaIuhFrkePrH/Gz1XTcjpikv1bHKtaUs6usPUu+Rkye0YOCsWqCUfTeiXs0WeV4ofvoDuGwsiSvxdlUEV2b40W7a67hFH6/fX/13YruH+1V5Tnf9t8GxEoVVom982R3WN3rfasdAxnasyTJ+T6x/Hf/xcjzjYjt1c+zync4xzmSy6uNcKBJ90YB5IpqF+Si7N+IyzNmZyFknfp71jbSnibYDe+NnCzcX4dC3ZaUJYNAj6oAY35StM8+IKgQG4X1T/CxcPKkzpdsM2vwY6hHJys6MGFgbUiIz6NLHeoe/MuNW4/dIC1P1mxj7zkfkSkZqdIc1f4G+bPCiWveiT69cMbcdkZbAJZkSNypC14ibHkvLZWYPxAkKUpAq0iQLwvdBv1gTKL9nWUSl98L9snxFDNy/biwJ8+eLUXSPzUL7Iqi/R2KC8Hu70XqgCTWPFaLwW3lYql97byLybEBkX8w8G8t4y/N2i/KMRU7a0deBlgN12PGQ2I+CLKzQ758Zh5lWR2yyn85UbPjhPhRdqkPeInmPUwt6z9o5Gvnhl53MgULcGLF9eV14g3ip+0OZhvHIxm03q6dm6gvou31j1x1j/1ciVrE6U/VaiMF/M373+0SerMq2/uDgT9XPcfJ9GGfbNvj97rh/n3pLjljpTNwDh/+iXstj5kd4HVTviSYU3hhZtnORt1e89OqQ3s4TZ9SbWMcHWR8X3yPWGhwyDrbjap/2yz113Q+wb50fdWsW6fd4tLwxiIB5EGlbgvuVIg7cjZW47a3NWPo1ee9kBzwXEwm2MpEaOQATrUP/2hjTQGU8itIjW1MKrpc75bg+qp7o+e8dnSE08f6xCLdFfGg1bXmpjlXu7eoeFfPjjs1iKCZSG9bXiLRG5bkD82Sn1KPSMobE21V6VDlPdx0v+svF0eUuOJ36aEuV53TXfztS4Pqrcji97XCPRG0eHDs4gPxHihD6qCCx/nX8x8vxjIvt1M0xy3daxziTKbruj/RFH0T0cZcG4e5sQdPuHSj9lhgT3rXCuPfRZOJ9vY3xs5X56UjX69Yg+g+LHxn5WBYxvgm83SvCcFE/VmeLGjZ5EpqIxGHVyq+SlJREElOGfa/1oMfy8RRWjjnwGo2mM9IjmqfXjXbZeWxxYZlVkhYW4lBjob2gTTS0hCJyOQFGwVKkFdeJQe9lLMgsQ+WTtTjyfLlaIVxieTYJIjutWC50o2L5ImRtb4b3k3lIXb0VO57ah0N1EZ9UJWjG1JGE2EtnSkY52n73B5z853Is9jWhROTv0sfs3cSfXXXEYtvqsS5drZWo+DueGTm7qt26M5bZ16snU2Aqt22bOOAlUqfursYRq3LVH0XikDp9pqw/mp2B8qOn8YeTbShPHUJTcRYWLa9A9wX1+hRKvW83ek6fQ88P88VgfSfyvrYUhfvlFDwzXYL94wQ/FJEmkpdlDVbpNB5P3W0dgkxIQu1qEur9ROu4vAIopgVwqFmvEzUt9T9rDbZnDKD9LSNqC/Yd0696KLtv/EPjiRwvEx0X26qbNst3esc4k8Feen2vVmDpf8tCxT94MXxDKvI378CO+kPYLc+Am02kHSQ4frYUurrq3gyEh88B9L8hQ7ZM5N85mSGb7aAtRX4dDLrfH7JsfMHPIj6VmH+jHln2eSOuQwiRZ37Ej7W3j2NnbnCILkVevWHVnIK48pl6qqTMlmv7kPIXLrhWWj0y4ByzHsWOpvXT8iLUqv7WSv3TFjlTXfcH5lxKgcNuq75xMXJEYV+x+X0S/tcbUdeXgyO/PoXOn9ai8uH1yBf7lH1LxEFJ5VnvuyMfTSVmKstT8LxchdYbqnH8fx/HwbpKVJYW6WWTnlAEazLj6ogfwx+KgD3ugXQc6bzOgYzCSux75TTO/aIS89pKUROaddSS0c49X96IHMvti8et4x3wxPgk7/wZ9IkfOTePXXcc8/VaiFjV0O/TayEyVf6n3JAJ9LyHIatO64sroqVZOYPhqCzyYeht9VQxtt2PQTsfyFrQZ5V904OBGLM2+j7sF3VpWdxZZ4364MGZ88bvYYJXoi7t0tP8ThA3ZluUq/5Ij/GJ+liccK4C3J6BGHlq5F9mprriIMH2mWi5hzgyilD5006cPteJyhtaUVobPtvf2BLcr5AUJ1ylu3Hkt7/DqZ/mwP3jjWgyz346KezV08kwOf3jNOWlqlu+WYst0mk8MhbaPB7bNBntarrreL/lFRNBnBno1q94WqAnOFnrfwaKtrj0yxtlOChn3EaVGPuYgo5x9a/jPF7aHhePo27GLN+rMsaZLh60P9WKeU8fx6lfH8TuxytRVijTmK7vs5XxtAPb4+c4Yl5ddcmNbjkeXL0VRfL0b9CLjsPuBI8/1mwGbRnIKRS1+8CL6ImMYAO9aNktLw8wSclBvrzu+OABdERFvEF42prR7SxHfvY4hggO47pW9+FWeCKn5TwrvzNBPVcc2StRBjdefHkCn/bEjKa9cHeIInOWYWW2LDIfjh0QgdFI7Rf7eqAEebklotOy8e4L05HpdMNrcyTo94mOJ+p0cxDuf21VzxV5HfjjojyesyoPCx8Oh1euqSxP8U7DH4p3S70NzrBri30ib+WZq3GYUXVE8mPwrbGD3oTSGXGJgPO+tcgXP33+eN1GBlzrxQDEqp1PWDd+8bq8oMNM1NWX6uC2WXdS7s5HtbyH4mCHyMUIn3vQ+g/dcG7JR47aVEZ2kRhMNOHFX0WuHUCvfF/1W0ho4NQfFlCLVL7VhZaIbMu4b6vIzxbUv2CnzvRj6GP1VEldKQ4QaEXjYYu/v9CB5sN+ZP+1OIirRVYcGTkoilEfBtuaxJ6Hy/im/G4dq/xIVGTAkApXiahdbY1osejnfJ3NIv+yseGbam8SbJ+Jlntk3YczH2vlfVqR/dqYEtyvKA6k58t7Vfzwf2KvT7cjkXo6GSalf5yuvHTkYGVpjLo1KaLb8mS0q+mu4/7DXeiNzMbz7XrbG+13prn+J9A+9f7T3wL3673oOeBE+V+5wgbNCfev4zxeJjQuTqRujlW+V2OMM138wzgjdjL1Fmd4IHTejV/0qOchCbSD/ohbMGyPn2OKfXVVwNMnah+Qv86ln/AIerrQ/PmfhX+4MV5qQpKxfdSlz7gTNhW4nF40Z5NW/6ycPSViVqXQjEeWU8RHzrYTZ/ag0MxMpplfrrxrTF0aNm2qnMr1/nqtXp9xMHy2FmOWo/CpX2Vamp/ZpG37ZfSMMpFCs95ETcl+5YS2U6ajrF3sgVivu0orMM8go2ZTkn8755nRqWhju6KdeGZO2LS1IUYawvP4inuXvl/hU7gu16qekNPizhmdSUmyKg+x/lGRB3LK/5D+Pca0qrs6ZB6J7YZem6zytHhNTpkvp1gOny65QJ82Onyf42033IypI9KHR7WCyClvY7CXTlFWmcVa1Ug5H9OOfk9O0WzjPSzrici7n+3Sqh5oNOWZ/bII1d1NW+8Im5rXmG44xtdFxNhuaNpiy2mxo6bJH9a69K+5MNctWWeXa5v27IrqV7QrAyP7Hpr6WdaZ3Ad2ajvl1L0RabIqi2MdjWrKf0X1X0u2Nuvv3y62G3rN6u9DU1KPOSul7oo2sM+YBdPcB8jpuAv21BszbYWlWc44Jtc3T6UsHt1HtV1PFGuN5v4iFpH/ep8j8lPWq+Zfhmb8GrL4SpHQ1OCRZSxSkmD7TKTc+/fcoRU/Mbp/oa+sKH5prBwVdV+8R/gsYwnslyjrTfJ4qI6PI3U8cuZGC0YbCd9ng2oPqv/QJVRPrfZJstiuok+DPd7+MXK2vzDTk5eh2QHNU3nrX4Xxwk5tU6WpbcZJq1UexG7L9ttV7HKe3jpesHWTlmueml/9fXQfOtllZl0fY447YpbRZa3r0TnailW52pJvqKnXI9jvX0Waxnu8THRcbLNu2inf6R7jhDPK0c7xP8R+HzekHX1A/B75tUP3V2lVsn8z9Vn22oHa/pJNWrPc7w4xBhFlktD42ZLIA1mWFvVv6CU5A6XahpxJ9H7zjOLGuGTJ/eLvxg4KoiTwPW3CJ/36dyAslwkVjTj30Xqta/DKyKAsqmF9NqQde05UohzZIGWmLdcz+JgvKiSJPVBTHWVkI78y2KXVP5qrf79FaLv9n8hClGmLrhjD7matasNyvZBkWu5YJQalohMaiJqSPpqxTauOQwyanhONW1Sunc9s1Iqrj5k6AumyduJH8vUCbZfb3oSqekVasks7EZFF1nl8RTvTsVMrVvm7RHYUvSIFekdnUekun9G69pjKIzNX26jybcRnA1rzd1U+iY7s6PtquTQZ5Wn52mWtX2w3Vx6cxHbveKBKO/ruZdHJRO5zvO1Gmxl1RBOvr4j+LsI4xk7nsHbCXM5i3wsebbQopxhUPQmVh/73ZVWiwxsSexNivyxGOus/ivojvxNJ7z+WaMs3iG2+Hdkuxt7uFd8xrfHRArUdWe/lAVfkq+VgTtStF6pG2sgd4gBX331GuxKjX5F9XGOozog+rviZdu3MZ7HTpJdFWWh9sU9iwFX/r+Z8Eh34v4o2queleP2Z8KmVL797VNs58vcqfR0DYevEJ/qA7npt2yoZAIfyol/udYyD6uWw9Y00b4yTf5FEfX4hVIYif146o5ZLl7UBcdDcOLJt4xjRLtqylUTbp91yH3aL/bs/1D6MMmkMq7uxWA8obe+XCKaOPrFxtN3I/vWZo7b6D/sDGsV2PY21TzG2K0yof4wbtElTn5e64ROmsYrx9wWR75No0CbEbsv22lXscjZMXx0f0vueqgdUekX+bNvTFTX9uWEyyyxGfYw17ohTRsZ3tokB+s9iHznt9a8TPF4mOi62UTftlu90jnHCxTq+xJZQHxfZvz0h6tFl9fUEpvVstwPRrnaqur4kZ6f6aoUEx8+RQh/iWOWBCOa3iXaQ++hObdsDG7XGsOhsYkHbn8j/1Ek3iiUYQOA/HHBETA0aEgwE8AVm2b93LS4vmnJXoP/Rc2grmZSTqTQdxltHPnejZtkWoOU0dt87GfUn+fg7S5G2KRPHP61GtlpGRETTzYOGuXkY+EeOL4gmSo7r5FddWI7cvgwi8LkY9c0Wr0/WxGpCQrNHXrNSYg/GpRRRaJMTsEkZ2PpsNXzfb0BvjJtoKQmNq44E4X2hDu337sf2r2jARkRERPRVI8d1MUdu18lJCCc3YJMYtCWhlLursX/Le9j2fYubkukrI3iqCU++kIr9P5QTZhARERERWWPQlpRSkP30cZxrWa/PPENfTSlZ1Th+7giKor6IloiIiIhoFIM2IiIiIiKiJMaJSIiIiIiIiJIYz7QRERERERElMQZtRERERERESYxBGxERERERURJj0EZERERERJTEGLQRERERERElMQZtRERERERESQv4/wG/y3DPGaeVIAAAAABJRU5ErkJggg==;" vertex="1" parent="1">
          <mxGeometry x="782" y="297.48" width="270" height="50.8" as="geometry" />
        </mxCell>
        <mxCell id="sNh2fQXsmdcM-SWCnf_G-13" value="&lt;strong&gt;Combinaciones&lt;/strong&gt;" style="text;html=1;align=center;verticalAlign=middle;whiteSpace=wrap;rounded=0;" vertex="1" parent="1">
          <mxGeometry x="140" y="380" width="60" height="30" as="geometry" />
        </mxCell>
        <mxCell id="sNh2fQXsmdcM-SWCnf_G-14" value="Una &lt;strong&gt;combinación&lt;/strong&gt; es una forma de contar el número de maneras en que se pueden &lt;strong&gt;seleccionar&lt;/strong&gt; un conjunto de objetos sin importar el orden. Se utiliza cuando el orden de los elementos &lt;strong&gt;no&lt;/strong&gt; importa." style="text;html=1;align=left;verticalAlign=middle;whiteSpace=wrap;rounded=0;" vertex="1" parent="1">
          <mxGeometry x="320" y="380" width="440" height="30" as="geometry" />
        </mxCell>
        <mxCell id="sNh2fQXsmdcM-SWCnf_G-15" value="" style="shape=image;verticalLabelPosition=bottom;labelBackgroundColor=default;verticalAlign=top;aspect=fixed;imageAspect=0;image=data:image/png,iVBORw0KGgoAAAANSUhEUgAAAlMAAAByCAYAAAB3LlRSAAAAAXNSR0IArs4c6QAAAARnQU1BAACxjwv8YQUAAAAJcEhZcwAADsMAAA7DAcdvqGQAACpmSURBVHhe7d0PcBPnnTfwb99mBjEUxB2diLcpUYbYccrFMu0b22nioDfYmMnUNqU2JG/xOS0ENwWbTDBOLzi+tji+JrbpBRt6hwOX4vNdGstJipymL4YS5DJJLTppLBoGkYGxaLmxOuWtxYSxMs3Nvs/+kbSSV7Jk2WA738+MrNVqvfvs82f3p2cfrT4jCSAiIiKiSfkf2jMRERERTQKDKSIiIqI0MJgiIiIiSgODKSIiIqI0MJgiIiIiSsOUBFPBM60oWrQIRS+4EdTmzWTuFxZhkUjvIpFemqncaJXLSDxaz2izJuJ3oWtfF9xXtdczgH+gCx3dbgS013NdqG1V9vq1ObPRJOoekcIPx2Mzse7M1HTNHZFgSgREckbHe8QtgMsObP9mE9BwAq99Lw8mbTbRjSUOFk+XoqaxBkXPOMWrGeCKA3UlNWjYVoSdb8zm4IKIiBJJr2fquvgE9+0tcK/pxmERSJm12UQ3nhlZX7HDAiuqHs4RzzPAkizkrxIpWV6Fdf9rRqSISBG84kKX/MFj303snb/qgWPfLlTsmCEffojSYBBMNeLEtWu4FvOoz9Xe1luQh/pfXcPZn5SJUxjRzWSC7ck+fHjtLPavnyG10WRD7Zsf4tr7+1F2uzaPaAYIvPsSauRL4jdzXMalY9jS2In+wMfaDKLZiwPQiYiIiNIwyWAqAG9fK2pKcpGpjanKLqzEroMu+D/RFtH4eyvVcVePOeC76kJrebZ4nYnW38nv6gd6BuHtbUDFfZnK+7mPNMB5WVmF+BTVgZpC+f8WIfO+CjT0eqMGuscf9BpafyUcV7RZcQXgO96JXY+VIjdTXV/mfaXi01tyg4f1++m/7oXzhS3aetR9cZyLWcsnfrh7RR5+vQjZShrVPIzdN3ncTWVoHy4H4HqhQlk+c69Hfd/vhuOFGpRq+bNoUTaKHhPbu5DCR86AnF6xDiXvxToyc1GxswueqFVMtszd6Nim7ePKItQc9Kj5KfLI0Vih5ZFI87aOhAPHA++KslHqjraefeO3a/TFgqi0iP3Ub1PZx+vagiEp5qd/QK4z+jKsQetAqB4mGMjsd6FzZyWKVqrvy3leuq0Vzth6ErMO/4C+LWxB69s+bblogd91oSGcrvh10HVwFyqj9nUXnJe09xNR6nhNOP3Z5RPVuQA83Q2Rbcl1rNEBbzKNSz+eUy7Hy/1oDdWpJOpOlOs+9O/T1fU4dSmeoNh2x7bIMUIu745weWti2qxbbE/NJzmtnfAo+6w/3mnredcoM5LJtxTqiJa2zM1O9XVzkbremGNk4JxT5HFkP+V8qtzZCZfB9bjYZZXj5oFEx00tvYVN6ss3toSPKVHtZFJtZPLnEVngUr+yTf2xsDRe/RLHts6doeOJ2NZmebkEbWBcexP/UyKOF33e8XkVu+9K/jth3NpjpJquNNpE+JgrHpW9PgTebkWFnGb5PKgtE08ybSnl47eR2ONHOA5R63zwdx0oFevM3pZk/sYj/zafwt0iLVy4UDxapEFtlrFhqWdrhrZshnTv10qkkq/dK2UorxdKGRsPSkNj2qLCiGOTuuw3d0u7v6EuIz9a3PK7g1KL9nrT1s1SRsa9Usm6Qukebd7CjD3S0ZMtUqG2ncKc0P9nSHtckY0MPq+twzGizQkJrX+T1PNHbZYQWn7h87o91fY/I1/sz3frpLqqSDoKxHK6XTIU2c89UoucPzmFYl9KpHsztG0tLJRa3ousJbT8PatLpE1P1UnbdXkYtR9/7JE2KfM3SbufLdfWJR5K2keknir59T1S4bpNUt1T26WS/FDZRO9zPGND7VJ5OI3yesT+K+vQ//8ky3zdZmnzanUfI+laKJW/fEpdn5xHuvUs/MYRsaWQSN2oez5SB0pW3xNeT8bWoyIHIozKNTYtSvnq0x61jlTyc1g6Vl+ovaetN1R3w9uP7INa31Vjoq4VavND9SRStwuluv6ovYpuI1oZ6ZfX1yvZsENeTrwn2lP5U3uk3d8N1WWxrDu0rK5MRRq2P9sullPrqz6thj4SaRJ5qW4/us5sUvIvti1GtpWRXy7VPbdb2h4qx9XiePORtlg84WOTeDxQKBWG66vuEVV34tCl+57V26Xdz9VJ5Vr5ZmztMax7xuUm9vm7u6U9T5Vr7TtD2uzQbT3cZkukzVtFHTGo56eUMlLzLnKMKJeOXNTWoUg231KoIyPHpN3h8hLvafWvZN1u6ZhWZOH6Ix5qvdalMaNcOqhr7JE8Ee1zY520R+TpJjmNVT1RbTPakHRQ3mZoX5Tjvrqdg++pS6TVRiZ5HgmvR/n/7aL9b4os+4DIb/2ivh5pczhP1PQryz4g2sA6dX5UOzJqM7pjWWH9sUh+6dat1NMXRbkr9Weic7OQRroStwlj4WOueGwSx2m13otHwvJPvi2ldvyOQ3/8qGqRWrRjVOiYHtmH5M6Z8RgEU0aPSCEO7ddOIKv3hBufQjTSPVqhlP+7QWaIh1I4+gqpawRRBwffkUihyAeCd0a1N8TBJZQRz54KBzhTEky9d0RqcUX//9jJ3Vqh7ZZORaV7vMh+Zkjl+4ekUIqlv+pOWt89Gp4/0n9Q6vkgvJRi+GUtWFqnOzGED8zikbFZ6rmoT8iIdOxfe6TzUasZlo5oQWvJyxM0hbFT0h6t4RX+QDTmv2rzhZH+I9IxLc8mX+b6hjEqnXquQJuv1QVte2Pv7JEKlPklupOJrm48UCcd9WmzhdF3Qg2xQGof0mYKCYMpOS2vRNI46jLaZvL5OfzvWlmJMjmiL8fR89KR10OJiuxD+AD252NSXeig8fL5SD0RU+dfDgVBe3T1LaaNhP5B1KsjBm1BEsGxkjcPiJPjn7V5QjiPH2gXpzJBLKfuf510TB/MiPSfn+CAMvSiVo769AijJ/eET4D6thiqPwXPHtPt75g0qNWHghd1hWgk6thUIO1+S1332EX9cUJfjkZGpWNPqe1w00vndR+OIseU7c5Q6hKV2ybpoFfXBsXJS03DduloKL91bVZ/QorUOfGQ23KoTosT2p4H1Pn6OpZ8vqVYR4Rwu9AfA2Wh+iOOu3v0ActfRdv4gXYcCAeucp6q6y8Reao38sGwLs1xhMo19sSbbhuZ5HlE7Lx0pO1U1HFQ+uiUtFs7Ru4+GVpyVDr6XXWe/jgml004feIRCVoidS9j65Go48voB0e04CcS2A3t19qXCLD0ZTb6wfkJAofJp2viNmFMH0xFPRIFUym0pdSO33HEjW3UuGDsvXapRKTnHnF+jmwhdSkGU6LSxhS83qhzu7q8LhiIZEbMQVsRaQSRiiqLNFJ9ACIbeX2zOl9XWFMSTBkRwcZug/83Et7P0MlKTxz0S5T1iDxIVDfDy4XyW9AdmOv6x+e5keGXS9S0TLB/o2/Vqcsl/FSfRpnrg0JZ+AQeHQTJBzF1G/qGHqkb4xv0mHTqWfW9AhG4hiQMpmLTYrhNY+Pzc0hqV05+GTH1NlZkH0LbCKfHMM9D69W3h3htJF5b0A6OcduCdvAJ17WYk+aEQvlmVB8i5RLZfqj+GLSh0DFnXNnE0B+bvhkJTkQOSEe3avPFI2E5htpRhq5tacJlEj6xxi+3jHFtKtSbqSsfXc9U9IE+Ur6xAeRQm/aBK7z+VPIttToiC+9zzP6E6k/GD6KDL8Wfj0rble2E9itS3rFBQlJC+xEvbWm3kdTOI8YM6vTIUWmzsr3YnkSZCGBje4DC9cFoebFHoQ8nWv0LH29iP7xOZLLpSqpNGIsKpvQfLMfi/1cqbSmcjjSO39GxjS5A/+tYwn1LlcGYKaNv89UjT37rig9DyiXNdcjPGX9HKXOOHWXyxEn/+Oul6/ORs0CbNrD4c/r1mbFY+ya5PS8n6pYLli/erU1NveAVD5zdHehorEHp10uRm12KDu29pD2cD5s2Gbb8bjX/MILAR8qEInDBBcfBDjTJ1+jlsVMra+DS3huvDPkrDO7i9UkA3gEHOvc1KeO95LE+2Tvir0XP6+lUnnNWr4z/bcx0ytw8P/q+Y0uWattZBdtdyoTGgjvu1yYNWJfG3nTDhDv+Ttkqhj5KNE5HJzYt8baZTH5e8WJQGbK2DvavGJRJAr6L6lgV4zy3If9hdcp3dfyIk+g2YtQW/PCdU0vBuTkzMk5AeRRBHaHigl8e/7F8Ixq/L99Kwo3WcrHsygp1/NtE2Sn2PX59MGH+57TJkHD9cWLLl/TpEY/QmBmjuhPPLfJWQixYeqc2OZH/GhYpEPxNyg2G9ekIjx+6/Ke443xC5eYPjzEKPTKx5Q3lLYMyM2P+PG1SEUnvqugGAIs1X5vSTDLfJq4jiUTqz7q8lTHtRViSA3upPKHVIbGEfWs3qpaL//xZDXKXyeNzWuFUB4VN2tS1kUmcR4J+ePq60LGvATXiHFB6XzZK92nvhVz2wiE/2+xYKfY9mmgDsYerUN0zXF7MzitWJ7T6Z93QiEb5lipnWlEhj+Up34XOAf/EN8SebLom2SZi2Rv+EVUrtI2YxtWesEm1pWSP3xNZ3Yh//FaWWhduMY2v42mY5AD0eZgXdZCYPuaYg8P0CMJzsALZXypA5bZOHD07iqzcYlTVVEOr5skTB/tx/CMY1iZVfvQ/XYRl95ZiS1sX3JcWw/bQOlTXbUCOtkRSrvRj19plyC3ZgtZX3PAusKG4rBr1j6a0FixeENvKjExlmS/G/DSLNXBlUJuaQinn5+TzJLk8nzz7txrR3NRs+MhZIi9hQl5dH377fi/aHi+GVR54W1+KzOwtcGgDdhNLdd/tqGowTk9z0w28L9hdZag1TIN4rLFOeHDNWl9r/L/iUWxNvlLHBj3x3Zx8m2dKsnBvL8P+336IE//WiA0rxAe03iZUFiybkl/DmMo2ksx5JCg+XFZkZ6JgUw06nR6MLs9D8f/Zgeo12gKxPm+OCtAmlOzy8i2H3vwtzr7WJrZtVb8YVZKJ7GpHcgOkU01Xmm0iJNVz9VS1pZSMC8qmTmrB1G1WZCkTA/BcUCaiBL2DaqS72nLjDo46zosxVe2y+HSnTSYUGEBXfb8Iccpw+PdnceLn3WhrqEXtd0q1/U2Bxzeuwge9QyLHBEsOsm4Tz54eNP2rW3yCqMeJ98+g7+f70fyk2N7f20WYkTzPz5vQeUZ8gvveCZz9TR/6ftKMWrGeqvuTW4vFYleeXX2u+I10BpT56LjeJx/ef0f9BL3hrqm7p1TS+bnkVu0Tcw8GUrxRj8Wq9qi53EMGn/i8ENVBYV0ymROJBdZQh8dXNippN3oU6z61mpcXo/rHvTj7/86i+3ERNPod2PJif/xPo+F9N6oPPpyPvQdkuP4AeRuM01P7pAjmtGWmjeUOtQf1ghXF3zFKg3hUxr/xcKjcvLcXY6vR/4pHVe5kyiyOm5JvkfozYNTYr3sx2CdP2GFRAnLNLRbkVdTj8G8+xB9c4kQoZrmb6/CS9oXjVE1vG4kngIGf7kK/OKyUdZ7F2V/1ofvHjSKPt6JUBIlRllhEDggn3RiK/ZZf8DzOv6NNh4TqntHygvcDrdHcfquu/plhXVONttfO4trvu1FtE03zZ1vQ8csE/USTTdck28Rk3fC2dIOk2DNlw9oG+VP6EBqeaoVbX67+frQ+r142KqtcO/0HRx3rnWrh4NBR9IfTFED/S+3qiX4iHwUwokwshVl3kPD1vpT6Zb6+dnT+Utf5HnCj44etSnd8Ts1a9RLgx0E1yPu8Bebwpc8AXK+8lOAy33jBj9RQcbHFHIm2Ay50HUpuLdY1VWpjOt6EugPaLQs0/uNd6Fe+Kn3zy7zjuY6o7fp+tgdNx+WpKqyTu8OnSNL5acrHOiVP/Gj94bPhr14rAl50vRH/LGJ9cJ2a59112PkzfQgbgPenLWg9KSZtjVj31cl9frI9WK8Eta7mPeiK/Qq5KK+mQ1raLrmjv+Z+ixU5eVoJiuA1bohoWon8SnliCO37u+DVfTU5Ui56NqyqU1KEpufF8rFJEnWvU7lNyjS7PQ/FSg9DB5peEB+cor72LfK+uwPOBLdPseYVq73U+5rQelyfcYJc5vum+i7eNyjf3OejPkjZihuV3vGhxp1o1d+q4RM/+ttaoLT29VVYqwTkAXjejf5av/nL+Vrv+giC/61MTOyd93FeV4+mu40YCyKgBSBLRVASdrkHL8Ve5lu+EsXKgbxLtAGXbv/l22CI+hFbEW5fhXXr5Yku1D3jgE9X9wLnutDygnx8yUFjWb5y3PGdibktwe05yNea5l+CCT68pZyu9NrEZN34tpRYcIpujZBiMGVCXs1e7XpuE4rka+QlpSiV7z2UWaHcIyTviV40V+gq4w1geagK1fIm/R2ouDdXGe9UtHIZmkziU7e6SGJLxIlEqYSdqHigSPl/eazMlis5yf2/nm0eBndkIrtQrEMed3VvEZrkT1K5jdj7uLIR4AuhTyq7UHKfulzpfQXouqVYnZ+kUBDp2lmiloO8PXsXTA8nuZbbNqD5SJUIgsSB8pkCLJPvqaKkJROZ5aHeiZtf5nk4JrabjSItbXJ3t1+EDBv+rR5l+k/IaUo+P/V50onKe+R7pMjLFyF7WS5qEt1vSZfnjups5Z4u8nbk+pq7Q+yXpRjNP6lF3iTPE6ZVO3DoyTzRFhyouW9ZuB4q982Syyt0v5mrLnEAkcuyErua5fEhRSiplj96WFG9QR5LFY8ZZU+0wS4WUMbJrIzUmeyX7kb1k9piYSbYaw6hNldbPlSOyj4vEvWsFYEk7meTPiuqfrQfxSLd7r0VyPySlm7xyM0Ueb9tEAnvw728SpRLscgXdYyZfC8l5f/ldiCX+XtTfRfv6c03i1W7RHi8BkXyvpTUKCdOU24t9mpj6ZrWLgvvZ+6XMlGx1y2OY9Xobdqg1Y8gvP+ai2VyHd7WoI79vG8TWsU7llX1WPtlZaH4QsdBcdwuVY67ReiQj5XT3EaMmWFdoYaBneW5Wl6L9vxtP3KeUGbr2FD1/WqRPrkular7r6Vv08W1aFQCJz1xrGoKjS3bguy/1cpStMll99XA4beg+EcHRFmrO+Q/WarWz8d2oUkev1tYgi1yj+DyajyS8MNjqulKs01M1g1vS4l5+huUD5a+7h640wgeUx8zJV/P/flp9LVWo0wUvnfABdfAKBY/rHZJvtZyA7rsYy0pxnO/OIzah7Ng8Xvh+mAE1m+fwJsNa7VGPwGT2Kf/7EVjhfh/+RO7+P9byw7jte8lOqnEced3cPhXvaiyjuD8SRe8yELxk4dx5vV65IV6ocTB4oBrv3I93H9O5N/wPNh29eJAZWqD6y0VB3D6J9UoXu5XymH4szY83XMAVSlcm7Su34/Tv+lGY6VdpFTknUjz8IJ8VLfuQLF8SVJ2k8t87XOvif1ci8XDYrvn/LDmisb45mkcrpjaraaUn1F5YlU+Tbo+COCOykZ0r9eC5jii8vy6qG8iz90iZKxqOIwTp3tRa0vnLGGGvek1nPmPRlStykJQTpdcpuKTb3VrL84+oX4VAl/IE9u/G+Y/OtH5Qge6Qmn/zWm0rZmgi91WDccvRPrl9qK1t3lr/kmp4/bYAeiyJXY0v34G3Q1VsK8Iwi3S4zo5LD6Mq/Wn2uinqqbDXVXoPd2HtsfLRFtU67qc9qVrGkWb3YsNofoeR1ZlL06/2Ybq9Xkwye1W/P/5Py/FWrncWkIBxhSaznwTQdNrrVXIk0/wYl/O/9kMk1J26li62P0cFcdYpf683obi8E8jmZG1RtT/LwZwvrsDrYec2rFD/P/Pq8WpfQJy0PRqLYpXiJyTj7vDi8M99dPbRozI+92N3oYNyLL4RF6fx8jfrsPhHlGnDT6wmde04fQxdUyTmvYx3P1tsd8/qcId2jJR5LFlrpiylD+IijZ3+Fen0bvdJlKgsn5VtN2/M2P4jU607uvC+et3iP3uxhmXyPsJPjymnK4028Rk3fC2lICtuFn5cGit3Ii8NPb3M/JX+rRpSoN8p1blGxDrD+PDIze2MhAREdHNM8lv8xERERGRjMEUERERURoYTBERERGlgcEUERERURo4AJ2IiIgoDeyZIiIiIkoDgykiIiKiNDCYIiIiIkoDgykiIiKiNDCYIiIiIkoDgykiIiKiNDCYIiIiIkoDgykiIiKiNDCYIiIiIkoDgykiIiKiNDCYIiIiIkoDgykiIiKiNDCYIiIiIkoDgykiIiKiNDCYIiIiIkoDgykiIiKiNDCYIiIiIkoDgykiIiKiNDCYIiIiIkoDgykiIiKiNDCYIiIimsuuBxD8RJumacFgioiIaI4KHN+F7P+5DLfeuwv9V7WZNOUYTBEREc1RvguD8MkTlwbhvaLMomnAYIqIiGiOslis2pQVS5dokzTlGEwRERHNUaYFS7UpK25lMDVtGEwRERHNUebPW7SpxZhv0iZpyjGYIiIimquWWGCXn1dbEAqraOoxmCIiIprRgvAd70LHvi70Xwpo88TcK244DnaI+Z1wnPGLpQzMmw+z/GyeD3ZMTR8GU0RERDOYr3cXWi9ZYVvQj4qV5ejw+OFqrkDl/vMwfyUf+bf5cbAwEyV7PeMDqiW3QhmCfpeVPVPTiMEUERHRTBV0oetfslD9HTvsOTlihhvt5Y9j4P7D6P1RFYpz85BXUYXvlIp3fngMHvW/IkzzsVh+vkV5RdOEwRQREdFMddYN1zfssIlJ38UhZZb1iWbUP6RcvAsbu65NjGPBHSLQKrszdIsEmg4MpoiIiGaq5WU48KgcSgXgdTvFsx1V623R458CXnhOiufSOwwu5YklbwHmfVZ7SdOCwRQREdFMtSQLWcr9obwYPCSebMVYuVx+HRF4px+d4tm+Jk8dHxXFAusK4O4vcsTUdGIwRURENNN5BtEvPz9kw13KjJAABo/LoVQOir9ifCkvr+YPqP2y9oKmBYMpIiKiGc53bhDyiKnq+1dGX+K76oJT7rFasxVl8tXAoAeOQy74lTc1C8wwcQD6tGIwRURENKNFxkvZsqIHngfcA+gSz8Xr7colvqD7KA5e/5vI2KnLTuwqLELRTqf6g8c0LRhMERHNIr7eGlQY3U9oJrniRM1jHfDE/YYZpcaLoT7xZDBeatTvVZ7zs0Qo9YkHL7UMY0eF3EWl8jjq0HnGDfehLrguaTNpyjGYIiK6QQIXXHDs24XKr5eiVHvUvOCEN3xTax8c1a1wa69i+Xq3oKTfjr11Md/mmmluK0NbTRA7y8S+MKBK3xUfhvyApTRfuUWCnnXNVlSJAOvYyw2oeaQF+KcDKLtNe1OwlTaiTLxvXV+G/JhAjKbOZyRBmyYiomkQOOdAS+MedBwHih+vxiMP25GXZ8VijMJ7vAstzw3jEec/As8VYcvnDuAPPy5WfwJEz9OBonIfnv5NG4pnya//ew4UoXxoB053lvHu22kKBkTEbTYbB9GfBBG4/jHmcWzUTcNgioho2gThOfg4NtU7EXy4EYfa62E3iCqCZ1pRUtik9EjZ28+i71ux38ryoas8G87Ss+gd994Mdt2FhpWP4+P236Lt4XHhIdGcwct8RETTIgj3CyUoEIGU5YlenHjVOJCSmXKr8J318pTx19uDb3ei6XgVqkpnUSAlW2DHIzVL0dnWNf5nTojmEAZTRETTwNe7HZua3cCa/TjcUmxwM0U9C7Ly5N9dWwVb9E2EBD/6ftoB/5MbZs3lPT3bQxuRc6YdRwdm9JB5orQwmCIimmqeDmzZ7BBhUB6av181QSClsljEUo/bsTJ2UMyVARx9w+D+QrOFLR9lFj+63mXfFM1dDKaIiKaUH469Deo38ip3oCr261dx+P0+2G1Z4waeBzyDcBrcX0gveLkfXfs60HXch/AXA4N+uHs70SHmd/a64U+3Y+iqB46D2ro+UWf5PU5lu529nsh2x8lCTqlYtm+Ql/pozmIwRUQ0lTw9aH9DnrCg/lGDb+XFYdv+a4OB54Dv3FHx1wbrF9TX41x2YNfzw7B+eR76y7NRfsAD/9tNqNjUjvPmlci/fyn8/1KEzK+1wjPZgOq6G63bXoX5q1nwvViEgqcdcO6twPZXRmFdlQ+8VYCSffFCJTOW3pkj8uV9DEfdlpto7uC3+YiIppDnwIMoeEb+4Y9a9P2pGfa0rs354azOROXPGnHiWj3ytLkRQbh+WALP+hOotYmAZ1ERmiwW2CsPofv79nAg5/tZJbKrnWj81TXU52ozU+DrrkCr+TD2lwbheCwTW0SwmNdwAm9+Lw8XDojg6hk38Gg3PoxzCwR/byUyN/vQfPrXIp3azETOdaFytyNBb1di5q+3oftbWdorohtADqaIiGgqjEg9VQulhQvFo6pHvEqXtr646xqUWla3S0PypK9H2iRvd3WLNDSmvBk2/HKJkqYWtzYjJXIatktH/ywmx05Ju+VtZOyRTinbGJMGn7tHrPseqa5/VJ5haOzk7pS3PzY6Ko1O8jH2V20lRDcIe6aIiKaM1jskTzacwLXvje9LMhQMIHiL0Q0X/WpPEA7jwyMbDHp9AvCeA7JWmBH45S4se6TT4D5VAfTvXIaKQ2U4/PtubLhdm520IHwePyw2K0yeDjxY0IChJ/vwpyZ78gPiz7RiUWHTpHvGptuiRYu0KbrZrl27pk3NMkpIRUREU2BIasnQeqaeH9TmTWRMOvWDQqld6V6KNSz1fDNRz1TE4HPydgvGr2f0mFQnp2fdEbG29Ay/sknZt7q34vdCGXK3pNwzRTSbcAA6EdGUsSDrIW0yWVf74RhYB7vhWCITkNTPg3gw+Ev5efx9qgLv9KNTPOesWZnULRriC8DrdornMuT/XWp3Mw9+NKpNJU/++ZTAJB9B7duGRDcKL/MREU0hdbC1CDrWx7s0pxeEu7kSx1Z3o/GrRhfNJhqArrnsQOU9W+B8vDfmd/0CcG5bhsruYux/vxdVy4Pw9HbhLw9Wx70be3xuNC0qQqutGadP1477wd1EOACd5jylf4qIiKbGR6ek3cqlvkKp5b2YkeBRxqTzL2+WSp4fFFPxDbVliHXt1gZ8Gxt9q065jFbycsyFvNAlvm9ol/jGTkl7QgPWFcPS0acKpcLVddJRnzYrnqF2qUBe17OnEqbXyND+ApG+OulYilcHiWYLXuYjIppKC+xo/M9G2C1uNG3cjq5zBv0rAS8cz1Si6fqTcHwvL+FAbuuKdeKvB77/Ul8b8Xrke1EZ/K7f1RF45ee8u5VLfJ6DbRiu2RjpVfpdD+oOueE+04m6l11IdBsq/4VByDd8SP1O7AGMXBT/udqGBPcdJZrVGEwREU0xU249HL84jNqsAdTctwzZhTVo2Neh3I28YVsRcjd1AX9/GN3bbRMGJuYsG4rhgscb76KXH75zfsBShvzYS2jL12JrpQij+rvQsKMCLbc048B63fW9L61F/XrxvkXMu/SnhJfVfBe18VK2VCMiL4b6RKj3ULpjtmYeeVxXMvdBDbzbioptTlFSnxJXnKh5rAOe69rrRK7PjTFuHDNFRDSNgpc9GPR64T33F/zNipWw2WzIsqTSt+NDV3k2alYkuB2BOCEFPmuGOc5q5ZP+x7eI9xdoM8Zxo+kxH6oTjfEKim38d6J1xKHcTqEHG5MdLzVLeA6WorzeBaxqw2tvVscdQxY804qSfwD+yVmPvFTzbhZLZr8Dx3ehoLwTvuXV6P1V26z8Ie8Q9kwREU0j0+022NdsQPWT1diwJi/FQEpmxbpvVQH7HOi/qs2KtSB+ICUzmScIgjyDGMrLSjxY3jSJQErwvN2DoTVbUTaHAinl0qXXpfQ0+QcuYCRel97Vfjz7zWNY98+frkBKJvfO/vgbx7Dpqfg9cr4Lg+KjgnBpEN4ryqxZi8EUEdEMZy6tRnNuF7r6lFPPFAvC5eiH/cFpiHauu/Dq/hHU1mycY5f4zFgcjjwtWGx45VPk64vbcfTRRmydU4Fk8mzfasTGt+vQ+kvjaNNiCdUKK5bO4l4pGYMpIqIZz4atbY0Ybe6I3zs1SYG3W9Fhmp4TvuenTeh59BAaH0q1N27mM30uR51YbTHu0bvUg459S7FjQwp3ip9rFtjxSM1SdLZ1wehnsE0LlmpTVtzKYIqIiKab6cv1OPyjv6DuGYd6aWRKBDGKVdg7wTcKJ0MeM7Pz9bX4j3+Ym8FEuFfFPN9w/9yOJvSvnmuXN1Nne2gjcs604+jA+KH65s+HwtDFmD/LKwmDKSKiWcJacRhvFrtQt9eT1LfIJmaC9SE7rEndZT0FV5zYtd+EH8/hQdfmJVowdfutupukhrjhOuSfgrvOzwG2fJRZ/Oh616BvaokFdvk5Xu/eLMJgiohoFrFW7Edv3cS3VLipbivD/iO1sM2qQCoAT28nOg464A6NmPZ74OzuUOZ5Yi6vmj63WJ34nEHPlGcQTrGOVStifttH76oHjoMd6Ox1wx+6NcAnAXiPdym30Ojo7od3ii/ppsUgvX6PE10irZ29ngS31chCTqlYtm9w/KW+efPVQDRO795swmCKiIg+5YJwv7AFry64D1l/bEdRwS44+uR7Q72K0dvtyMf/RcG6juhgQOtVKbOO71PxX3wfQ+LdLGucEOG6G607j2LeV6zwvViEgqf74bvQhZq129EftCL/fhvmDWxH7n1b4JwJ33KT0yvywvzVLC29Djj3VmD7K6OwrsoH3ipAyT6jUVEyM5bemSMCzPcxHPu1viW3qj13d1nZM0VERDSrXepBi68KTz9sQ06OOL37O7HlReDprmZULXZhd71jfDAQ6lW5ZXzA5L80IP6aMX+e+jqW740W+Cp2oCw3HyvvFMsf2o4Ssb1aZzdqS+3Iy7Wj+ttV4g0Het6Nd2OBG0dJb+XTKLblaOndgvZPnkb3j6rwN+/sxq5eYOiD4bi3QFDHl12AL3YB03wo/XtTfZn5JmAwRUREn2r+9/qx9GG7CH+COD8k3+ndgvrv1yrjvYLXR5UgwfrEI9E/Dn2bFfJPKecY9EwFP5H/IwfW29TX0fxwH78DZavkUMyH82+IJ8sqNDdUIUt3WTQYnJpRcemT07sUxfeL9AbP430lvfVofFL+0kIQwVEld1C9wR63d0kdXzaE4Mfq6wgL7igFyu6c/SPLGEwREdGnmjnvadSvloObC/C8Lc/ZiFV5ao+T6auNOHvtGs62FKs9UTomOXxIuVfFjLy6WiixlGcQ/fKsR6tQHBN4XTgn924BWbcldwEseNkN14Ar9ccZ3wRfZpDTW6/enfyCB0qqHl2FfCV7TMhrOItr186ibU1s7kSEx5eNI1Yi8m/eZ7WXsxiDKSIi+lST71JvlXuFLnsxKA/9edyOlXGGO0VYccf6fNxxq/ZSL+FvzZlgtVnlMAK+c/F+PNoD1yvyOyLo+rI65+ZJJr2TZYF1BXD3F5MLGGc0+bf5iIiIPu1G36qTFi5cKG16ZVibk9jY6Kg0pk3rDT6/UKynRRrUXhsblY49JS9XIh25qM0KGWqXCkQ6Fj51TCw1U4TSu0nq8WmzkjR2creSry1ubYbeRyIP/6pNz2LsmSIiIhK873WKvznIX5HcGB75Nw+NemhMt8g9LUPwJfwmnheDh8STrRgrl6tzQpTfM5THbX19lXJp0T/QCee5mz2GKpTefGTdrs5JVuCqfJvZHJiMBuQvEHnIAehERERzgQeDv5SfV8GW4PZQIcEzHagoLELFPve4MUeW5avE3wDGxg241gmNl3rIhujNeeByDImVVGnjtnw4Jt92IOUfyJ5icdM7Mb9fDqZEEBYbo152YpfIw6Kdzim8q//NwWCKiIjoSirjpfzof6kB/Wfc6G88isGYaMpy50rkwAWvL35vkv9CnPFHwb9gRE7H/XfjbvGGv68Djvur1QHgN1Hc9E4ogJGL4j9X25AVM0bd46hDp8hD96EuuC5pM2cpBlNERET/NQz5pghl9+eM+9beeBbYK+tht4jnuuLxwdddNhRbgIFzF7QZ4/kuKltDvi1ma6Z8PNJkh+WdV9HeWIntvy7G/hlwx/u46Z2QF0N9QM5D439ax1baiLLlgHW9WG/Mpc7Z5jPywCltmoiI6FMqiEAAMJunImwJwvXDbJT+rhFnf15l/Pt8wQAC/22GOc5P7gRFYj7GvClKzxSYIL1xeTrwYEEPNp7+NWrn8I8+s2eKiIgIpikMXEywr9+BnJMvwRnvV1ZMiQMTeXD7jAmkZBOkNx5lMP2arSibw4GUjMEUERHRVLNVofHxEbQ7XBPcFHMOu+7Cq/tHUFuz0bh3bg7hZT4iIqLpcMWJLf+7HStfOzGnL3HF4zlQhPKRRpxtst/0MV/TjT1TRERE0+G2Mhz4z7U4+lQr3Ne1eZ8SwTOt2Pn6WvzHP8z9QErGYIqIiGiamHLr8dpzQEu9U/nB5E+FK07s2m/Cj531yo9FfxrwMh8RERFRGtgzRURERJQGBlNEREREaWAwRURERJQGBlNEREREaWAwRURERJQGBlNEREREaWAwRURERJQGBlNEREREaWAwRURERDRpwP8Ha64UFrB3/FAAAAAASUVORK5CYII=;" vertex="1" parent="1">
          <mxGeometry x="770" y="370" width="208.77" height="40" as="geometry" />
        </mxCell>
        <mxCell id="sNh2fQXsmdcM-SWCnf_G-16" value="&lt;b&gt;Principio de inclusión-exclusión&lt;/b&gt;" style="text;html=1;align=center;verticalAlign=middle;whiteSpace=wrap;rounded=0;" vertex="1" parent="1">
          <mxGeometry x="120" y="460" width="120" height="30" as="geometry" />
        </mxCell>
        <mxCell id="sNh2fQXsmdcM-SWCnf_G-17" value="Este principio se utiliza cuando se cuentan eventos que no son mutuamente excluyentes, es decir, cuando hay una superposición entre los eventos que pueden ocurrir al mismo tiempo. Se aplica para evitar contar dos veces los resultados que pertenecen a ambos eventos." style="text;html=1;align=left;verticalAlign=middle;whiteSpace=wrap;rounded=0;" vertex="1" parent="1">
          <mxGeometry x="320" y="460" width="470" height="30" as="geometry" />
        </mxCell>
        <mxCell id="sNh2fQXsmdcM-SWCnf_G-18" value="" style="shape=image;verticalLabelPosition=bottom;labelBackgroundColor=default;verticalAlign=top;aspect=fixed;imageAspect=0;image=data:image/png,iVBORw0KGgoAAAANSUhEUgAAAl4AAABXCAYAAADVsUtnAAAAAXNSR0IArs4c6QAAAARnQU1BAACxjwv8YQUAAAAJcEhZcwAADsMAAA7DAcdvqGQAACA6SURBVHhe7d0PUFRXni/w77y1SlKOtlVOpa2dIe0aCcYJYPIEkxkiL4rtMyUwRkimVhYTUZJNwMyImIykzQbCrNqaZ0TzEtBEGbKZR5M/QHZ9oqO2z5qEZjYJ7ZpHayWPduIrOhXf0I6Uba1b95177wGapoFu/jQN8/1UXfv26du3773nXO7vnnPu8XuKACIiIiIad/9JvhIRERHROGPgRURERBQhDLyIiIiIIoSBFxEREVGEMPAiolHxeb3w3ZZviIhoSHyqkYhG7ooNufflw9TwLSoeiZGJEXTNBfvFTvlmCLPnYfE9JhgmYBOJiPwx8CKiEfKieesSZB/2IPPty6jNNsr0yPGeLEfuIQfw5w7YW90ixYSU5fNwh/5xr86Ldrg8JmRa38WhpxNhkOlERJE2Zk2NvlYr0mfNQvpuB3wyLZo5ds/CLLG9s8T20iCu2pCrHqNZVvzFHiWPHTWv18BxTb6nXr5PDqBcBF0qt0d/jTTDSguaPmpC06uP6wnLS3BEfR8wtf6hHkVGNxpLUpF/VA3QiIgmRv/ASwRPWjAyyGRtlcsFumLDc39bDpSewvsvpIC1+TQ1eGDbnoFCSyHSf9Uo3lEfJ6pfsmN6sv6u7cbE3m45P2vWXo0PLYRJmwtgMCNrkz7bfLhRbD0R0cQYfY1XtwPWp/LhWFmLIyLoYhU+TR0GxD+QBqO4lOetThKvkeG7akeNGuy9Hr31jO6jZWh49DVYHpVHxdMFrz43ATxwOdq0ucdTErVXIqJoNUjgZcGp69dxPWAqkXe3/cxIQcnvruPCG5nB7zSJJq0YJD7fhMvXL+Dg2siVbu8n1ShUmzejtc3+WjMq98fD8kwiFpqWyjTvxHUx8LXjiw/VmUwsvmew+nYnWpr0OfOmTDA8I6KJwuEkiCgMPtj3FwP/uB1pM0RoOmOunvxV58Q1xV5woE59XW5Gyg+1lAA+OHZvRakTMOXWYt+TvEUkookzisDLC1eTFYVrkhEn+4AlrMjFtrfs8ASM6eOpz9X7iW2wwX3NDuu6BPE+DtbP1U8dsPb2IfPBVV+K7AfjtM+TnyhF4xVtFfB+UonCFer3ZiHuwWyU1rv63WH3dJbPrQ/889+z/lzYrsqkQXnhPlmFbRsykBynry/uwQwUvu4IqRnFfz893S407s6X69H3xfZlwFpue+CoF8fwZ+lI0LZRP4aB+9bXyV3swxUv7LuzteXj9smeKh4HbLsLkSGPz6xZCUjfIH7vUuh1EN5PxH4/IfMyLhn56j7/h/wwGI8dVVtzkb5Y3271OxnPWtEYuI+qwGUXpyN3ayNC6+IcWM7UY7kNNU7/fRthWfS6YLNkyzxKQPbWGji75YJSsIcwwitr/uVb/P45/3KcD+sZv6Mg8zluY6P+viJd/+2Asuv9shHWZ/vKqH48q2APEvkELquV50OhleegnNUov7ITRav1TgWGH8imRpEfw5c2EbS9op7bYlss9oHLOyvxsPpZamVYfbDcF89pQV+w/l2+K3ZUbkhG+uE7UPR2K84H1Mz7Pq9Ehjg2Cc+GWh6JiEZnhIGXG7aCJUheX46ac12YvSwNacvi4WttRFVJBlLXV6l/hwe6/QWqCjJQflL9Eyf+VAZcFNuqn8OaXzXj1lyT+OPoget4JXJXlKPxjBXrVh1Ayx3zkDJffPPLZlRuXAPrudADi5C0ViFh3TY0uIC5KwtQsDYFMV+q/W3SsSacpzVvt6Pml2uQ+54bc3+chnijvi/5D64TwWbfWjwfFSN9Yznsf74DSZsKkCePYeXGZGwacFHXfVGdj4yKZu0i4bmtrkvtAJ6O/Ao7bs5MQsGmPKQtEnf4H4rfW7IphGBT5GZ9Ppas2oaq42LHF4m8/LEBDnWfLQ1BL9DaE6xxGdh2uFGEFSlIW56GlBku2GvLkSv2cdtJv22/YkN+qr6sZ04eisqLkPcjL1oOu4avIel2ovKJnnLmQkyyWs5mo+t4FZov9WzZCMui93+i7LFk7Dh5C3Pj42EU62k+XIh1vxy/TvRtIu9S11ShfWZPObahPEsEXz1lYpoBJnEs0xbJYGa+fmzTlptgmKYnaXn1YC7Ka+3omqN+JspXtwONh7chIzUbVX47q+bTOm3ZduCBApS8UIClMzpQ43CHXpb7caPmlQZkFef0BS9iu/StbUfnsAcuBksfydOXf70ZLQEb4TxTB7WnVlJOWhhNgeLm5Yxdn+sNVPumO+/LQI2hCKdO2FCRHT+gD6qzuVQLWN21dXCEcK4QEY2aOo5XL8ceZebMmYNMe5QWuVjbwRV62vIy5USnTFR1nlDKluvLr/tNh0wUybb1vetZsLlO6bgpP9C0KHvkZzOXi9+4IZPdx5T1PekzVyh7ft8lP+hQ6vJk+ktnlZ5VtezS09bb/DdI1bP+9UrdNzJJ6Fl+5q6evRI+O6bssff//s3TO5QF2vd3KGf7bfdAffu5QFl3sE3p2WLl38U2b16gf/b3Db3pnc1vKXUXe5fSdLyzTl8u65jYU+mbur5jsWCjUveV/4Z0KiferFPa+62mQzn2mL78mnf68iGo7xqU57R1L1A2vue37I125VjPNvvlvfLdCaV4gVz+nfa+fRRz7e9s1I/VgrLeY9V2MFVfR8mJ3rxSdV1sF1s+lJvK2X+Qvx+knB1r1hNGXhb772+XvUxJ1dLXKMe+kolCsHISXlkLKN89B0yUiWNByrGqdxv9y6aq7YCyQlvXCqVM7r/m30UZ+Ad5HB7rKTddyolf6utfU92upfTovNjhl2+h6/xgo7JCbFO/06C3bPY/vwbXphz4qb5dO077r6knfV2/4z+sm2eVHdrvb1QaArND1XtsFihr9gZsu3DzswPKGlGe7xPn5TBnChHRmBhBjZcDJ/arzS5GlLxcArO8OdcYzdjyizxttrnertXK9FeAQ/9N3C0P0v+16KUipMyQb+7KQp58/Bu5W1DwUM+9qgnLfpajz175duRNJsHcn4eSZf47JO7RHzJDHyHIjW9DHcspcQt2Puc3SOM0E3JetCBNna89hxa50caVBchZ1P8e3LQsU1/utCdozUvBG4eQM9//ABphfjoH8f1WY0JahrYWcTc/dDWE51wDatSZlRbs/LlfI8yMeOT1bLMfz5kaVKmrVJd/0r8GwYD4J5/HFrWqwmNF8yd6dYZhxmztFf/agnN+m2JYpNYyDcF7Dk371C+YcbDaMqCc5a1UE0ZRFpf331/Dsixkat+3wzNOY3Zp5bvngIkysSrMcuw4fkDssdi1YgtKtP2XpokyULgF2t6etMH+tTozHdPludTuaIHL7weMi0wDan6G1W3Hge1A3tp43PJ64e2dbsoFWtDxrZwdUiIynzFrc5WnW/pq3px21Knti7l5yJqvJ4Wkt39XGpL887+HemxesKBInE32V9bjpZP9j3TM/UVousyHg4gocgYJvII91ViCFPWjq260aRfQLCxNGhhBGZLSkKnOBAsc1i5FUk9gFcTs7/uvz4DZ8g9pWkpSvwuF8UcL5dzY8111orG2EpWWQmT8LAPJCRmolJ+FbPXSgU0l8xfqxw+d8N7QZjTeS3bY3qpE+dZc8XvpSFhcKC79g8nE0kVBotbbXrjO2VD1ernWP03t65WwZfC1+HNfsmmvScsXD7zwTL9jwAXa/ZXe/yjo8mKvl67W59zX9AucKccCixrMtlqRrfalWbcNVSICG7ap61IbqtTXxDQsHuxCPJqyaLgjYLw5I+b9RM6Ok/7lO9xy7IH7S30vslIWDxwrb06SCLbVmZ7AMQZpm2uRpzZp/rYQybFxSN5oRaMzlBAvkA/ON8vReNe3sG3PRe4Gv2lHjdY8qG5fYNeBwZhW5+lBol9zoxpUquvJW50WVlDY27/r4WDlUYpZiMVr1RkPqj5zaUlERBNlhH28VOKOerqcHWeGgAvW+BAXl7eykXBvKnKfrULDhS7EJ5uRV1gA/f48DLI/Tj+eTnTIWZ0HzdvTEbskA/l7a+D4ejYSH8lCQXEOkuQSIbnajG2rYpG8Jh/W9xxwzUiEObMAJT8Pay2YPSO8OpCQl1eHG/n4D7jw/l4UrDTpDy+siUNCgS1IjWgQPzCEcCGOXFmMBtNjQtzZuzJx8A+XceptC3IWAa76cuSmxob/v0t8XYeyf8nCu78bOCJ800evIU/eILW5B4S3wc0xI6dY/VIdzmljZjhgV0fAN5YgZ2U45bCvf9fjD9yjvQbnRrs23IS4YYjI3xIiosGFH3j90IR4beYcnJe0mX58rhZodSLLjUM3JY2Txq8CLudX3PKOfBjec6gpaRZ/yjNx5N8u4NRHtdhbWoSipzPk/obB6R4QVPhcbeKICcYkxKuPvDvrUP6mA0gswakvWsUF7CAqnhe/93dpkI1zIXF+VI6qVnFBeeEULnwqLoRvVKBIrCfvJ6GtxWiUTZKOtgHNXb6v2tEi53sYTVodUtDlxaUdYlc0pjn+F1ADTCsLsPf9C7j+b7UoSBSXzN/mo/L4ELUvc4yyybVRNp0FMcFlccRlbUSMMMnY4lywne12yXGq0mCco6XophmRkl2CI59exh/tFdpNhKOiGNUhPzboge2VaizdtXmQDu9+NYXawx6h6Olk70HNmRZx6p3Qmq+TCrOQFk5c5G1Dy7Djd4lycEY2p4u937w69G77RETjYQQ1XolYVarWprSh9JdWOPyvnZ5mWHdpDUTIzF0V0T4Tprv1gACHG9Dcu01eNFcf0C++w7nhRac2MxcGvwuXu746/KbGpgOoOu539+91oPIVq7jMqBeXVfoF7JZPv0j/wAhDb/OrF/b3qodoahzId0O/1M82Gvqan7x21BwObS2mB8x6DVvtARw445eZftvsz/Rwlt58V1uMrb/1Dzy8cB3dA+tpMZtoQdZD+ta4WwOGdLgrCUtlwfiTb4gL9fxVyNOah5pR/qtK9GshE+WsRntycmLK4qjLWqgc7f0C+ESzRcurNstWWD/x29nbHjTv3aM3za7NwyqtadYL5ycu8W8fw/1LZW1qJ3xDDRXix3vcirI5FhQkDx8RNYZa4yXELMvS+gN6aptx4GSNKGdJePyRMIOiS21oUF8HHb9LUP87s4JKsX4jct7epzW9+uNwEkQUaSMIvGKQUrhP9tspR7rad2RNBjLUMZTisrWxilKeqUdFdmTru4ziDrpA/UlPJbKXJGv9s9IXx6I8xowCfZGhzTEhSfu7X4Xsn6Zr31f7SuVfTQrt+/4Sp6NlSxwSVoh1qP3ElqSjXK0JSrZg3yZ5cfnrebL/0TaseVBfLuPBVNRMM+vpIeoJAuxb1+j5oP5eWg1iVoe4lsQ8WJ5RwxIHrFmxcpvTkRC7Hu2PWgZuyw9zUHEsTwQyHtgKErQxpHqOdfIWGzxGMyreKEKKvE57Tmcg7l6RHxu2oVztN7diDfLVmpn5BXgi4EGG/sSFslz2UTpeitSAcqYHPBNTFkdd1oZhNMn/nuhkIdLVsrGmEI1Xxd4mF2Hfy+p/YeRA+apYbUwuLb/vjUP2PocoXwWoL8/RvwsfXG8mI1bNn2dL9T6ED66HVXxiXFaCVfdrCwV32wev1wNnfSlyt1Rhnmk2fN4gQXK32rlepPdUbl7rhEftcB9SxZfsZC+OofV1EbCt3IzMEOMun9ap3wN7sxz6I2EuZvfr8K9ObjhqS0V5y4fNk4KCd0/hSPbA8JvDSRBRpI2sj5fab+ej82iyFiBT3Am7ztlhV8dQWq03J72/xxzR2i7NHDNe/ecjKFodD6PHBfvFTpieOoWPS1fJC9EwYsQ+/VM9LNni+187tO/fmXkE77+gXujCdPfTOPK7euSZOtF+2g4X4mF+/ghaPyjpe2pTBDCH7Ae1fk+eL8Xx65iOxG31OJQb3oMDxuxDOP9GAczzPVo+dPxVIrbXHUJeyO2jBpj3nMcpkZdmEeSoNVQdf16Igo/P48jP58ll+jOtPYjzn9bCkquPIWUX+6iO55VXegSnztejKLGvdsT0kAV5Pzag48MqcYGtQXv3PLFcLVrte2H2bxILRu2jZG9Fbak6Nhn0cvaNAUs37cWWR2SuRKgsGqf51fiMtqwNRwRY71vz5FhfdrR/Z0DM99UPRKBZ3ITzH+/tHWNOPfZdYnsKrPW48IE4pndpaxAMiF8pjsmPvGivFcHN4UZ0zFgqlhPf/6hgkGZDnfOtlYgVQWzqxkotKLFb0hG3JHBQUyesItiMjRU3J0dl0pu5iIsVaVtCGwutt5O9kPdkVmj59LlV3BSovxuHjN2yYff1bPFeTfOfxHa940Z8YS3O/59T2JsRfO2J5gqkiUwz5T4+eK0ZEdEY+p46poScp1FSR0XXRh1fewSXj/XUPNBkpo5Sn14BZL59GbURrsWd8q41ovBvclGDAtT/UQSN4fSrJyKapEbxVCPRVOeGW1bzzJ0xfB8nCo/nTJ3W6d1YnIFlDLqI6C8EAy+iwTgb8Zb2pGAmliYyMhhT15pxYL/6KIIZlr9L63swhIhoimPgRdSPB7Zn1QcG0pGQWqqNFJ/y8nZksP/PmPDUFyJdPbZ/k41KpxFp1p0DnjQkIprKGHgRBTDEeNF+2gHfIjMK3jiP94sTWSMzVv7qJhzy2Ba9/TFsT4c5hAQR0STHzvVEREREEcIaLyIiIqIIYeBFREREFCEMvIiIiIgihIEXERERUYQw8CIiIiKKEAZeRERERBHCwIuIiIgoQhh4EREREUUIAy8iIiKiCGHgRURERBQhDLyIiIiIIoSBFxEREVGEMPAiIiIiihAGXkREREQRwsCLiIiIKEIYeBERERFFCAMvIiIioghh4EVEREQUIQy8iIiIiCKEgRcRERFRhDDwIiIiIooQBl5EREREEcLAi4iIiChCGHgRERERRQgDLyIiIqIIYeBFREREFCEMvIiIiIgihIEXEUWXzyuRvM8p34yMz+uF77Z8M6V40PhsIRo98m1UGYNtu+2D1+uTb4LwNKLw2UbxS9HD+XoyrJ/LN+NpDM6LMTUWeeHzwtst56eYocoFAy8iii7i4usS04hdsWFTbCzK/9co1jEerrlgP2cffnK6MVTscau7C7eiNKgc3bb54Ni9ErEb6uCWKQPcvoWu7lvyTXTw+Vxiu+SboHzwfB4knwdMDrg8Q2T8aM+LsTbqvHDD9nQsYnfZxRGKImN0ng5VLr6nCHKeiGjitVox63Qarr+QIhPC4UXz1iXIPuxB5tuXUZttlOkTz3uyHLmHHMCfO2BvVUMLE1KWz8Md+se9Oi/axQXYhEzruzj0dCIMMl3ngW1DMfDrWuT8UCZFjVFum7MS6amlcMCCU9dLEDT3r9qQuwPYdywH0ZKzjt2zYF9+HSXJMmEAF2o2bIPN25O3gHFRGhbOlR/3kOXCuKwI+96oQOZdMr3HqM6LcTDKvPAe34YlT1TBs/YILkdRfo7NeTpMuVADLyKiqOHYo8zc1SLfhOfm78uU1JkzlZliSj3YJlND0NmpdMnZ0HSpXxkZsY3q9s3MOqZ0yKR+uk4oOxbo+7DuncAlOpW6vPVK3TfybVQZzbZ1iO/q+zxzZrFyYrDM+KZOWZ9XJ34perTsmqnsccg3QxL7+Lf6Pu44fVOm9ddevU4/Bgt2KGdvyMQeozgvxsVo8uJGi1L2U5nfPz2ghHGmDnCzq1Npd5xVztrPKi0ucR4HP7ThG9V5OnS5YFMjEU0RTlS/ZMd0eYfZdiP0BgzH0ThUtco3oWitQtxRcVc8As7PmrVX40MLxb10EAYzsjbps82HG8VeTX3e45Uo+yYFSdq7TnhvaDPjaAL6ynldaGlSZzKx+J4YLSlQ/OonxKeCpxJN57xa2lTkPLoD9umy5s7pG0FToxeuJivyH0zAw+vLUfN7J5yfO3HizWLk/pcEJG+0ovHL0R2/8TxPGXgR0ZTgPlqGhkdfg+VR2Wjh6RJ/nqONBy5Hmzb3eEqi9voXr9uOPb/6Eyr2bsE9WoIbnde0mXEV8b5yl9rQoL4uNyMl6pqJI+jrGpR9sAqvvbxKNi960BXOidrtQs2z6Si9lIJfn72A1o8PouL5IhSJyfJaLZo+vYBTLybB9Uoq8o+6Rth/bHzPUwZeRDT5XWtG5f54WJ5JxELTUpnmja5OuypfO774UJ0ZvNZDrbnTa0YA86ZMTPXwzHm0HK5f7ETm/XOxUEtpgy+6+s+PCffFc+JyPkQNiuD9zI5GdcZYhIxlgb2GpgIvmg9aEf9SERLvngf9TA2nhtMH+65s2JfXo744DcZBTiHDPWaU/I+P8V9/vw2Vn4/gr8A4n6cMvIhokhN/jPcXA/+4HWkzgJgZstfyV53ahS6qXHCgTn0dtNZDfbJvK0qdgCm3FvueHOwSPUVotR9Z2KntZwxi5NXL891Ua2bzwHHGrs0NWoNyxYatW2tE0JUGyz9ZtLI81fjO7EEx9mH7IyKY+b4B+pkaRg3n1SZUf1mCndmhnBcm5LyYg5bfnAu/5nucz1MGXkQ0uTmrUX5lJ4pW6zUEhh/IpsYR9R0ZX0PVeviu2FG5IRnph+9A0dutOP9G5qA1I1ODWvtRg6RXN8vaAiPm3q3NoLM76uoqR2eoGhSfF876UmSsyIfjJxVoOt+EkuTBalkmMyeqX3Vj5y/M+hOAhtmyqTGMGs7/24HGlMFrDAeYvxBLD7fBJd+GarzPUwZeRDSJuVHzSgOyinP6/vhNUy/hqnZ0RlWVV1+th6ciHbNmzeo33XlfBmoMRTh1woaK7PgBj6ePjAhuXslAxs9GOpWjeZwqn/Taj+3Y8lBfkDF9uv7a4o66usrR6alBQSPy7+2f77PujEXqRhdSXjuP80eKkCbvG6YarQ/mY9uR0ztMhsh3ua/t30RTfo//ecrAi4gmLc+HZahJ+TU2+7fe3NnTd+RWdA002lvrkYPay9dx/XrA9P8uo2JOHdIXJyBjn2OMausMML9Qi9pjI51KYB6PrkY+JyrV2o9iWfuh6avx8kTTQKFjoLcG5eXzA/NdTH/8NBMdW1MRu6QQjVf070wpVxtR9pul+HW+/4lqxLyf6HO3/kN/jQoROE8ZeBHR5NRtx4HtQN7aeNzyeuHtnW7KBVrQ8a2cjQa9/UbSkBSsVmOaUQRJFhSJS7T9lfV46eQYVTXFGGAwjHQanyYv92/LULd8M8zf9883L7p6rmJj0T+v2w1HsBHHtakF7eL32h3BPtMnx5WxCv78+nc9oD+3GciwKA87S9O0Pm+5T1WF3TQ2kBeuIPsUyuQa8ydKfbC/WQw8lYn4W/753YWb8sYoqmo4I3CeMvAioknIB+eb5Wi861vYtucid4PftKMG+oPg4o95FNV49dZ6PLx48D4hMQuxeK0640HVZ6O//EYltfZjvxtzW/f2zzcxVR6XV7pbU+ixRr8alKWLBg9kTT9eps+0noPzqj47Ffg+r0R5kwnf1m8LyO9tqLmoLxNNNZwROU/lQKpERNEhlBG6vzqmrFs+2IjXbcoeOaL0elto42qHPvq4FPYo4uqo7vo2DTZqua5FKVNHyxZT8JH3RzA6/M0upatrpFM4w4CHsm03lbMv3acU/0vwoek7P9iojxY+c484EkGM2cj1Y/c/AAxbdkRZWaDu02AjoEsd762X+z7IyP2TcuT6DuXYYyuUA4MMTd+2d4G+z6HmadjHoEXZM1hZCmqsztOhywVrvIhokvHA9ko1lu7qeRouUF/fEfU/Fg6F6e5MuDtDbzLwuNuQeXcYzzJ529Ay7LhAgO9MA2q0OTM2rx5k2IGweNG827+WIdzJOqad632tlXjpyk6UyCdQAxl/pI/kpdZoThVOR6NegzLE+F2AG3abNoIXjM9nYKoM4eWpL0V1YB9MP8aeMfduR0mOR+g8ZeBFRJOK97gVZXMsKAjhkfvGEPuOGB/JQ8xbVXB0y4ShdDtQ9d/nIu+RMB4/C2XU8is2PFdQKS7SRuS8vQ9582X6qBhgfrkJTR+NdLKMYed6J6pfPIHHi0P5D5FdcE+J5rZQRkBXx4TKR+FJMZtswbsvpqnP+01+15phfXUuLJtSht+fpg4tOJ1wETpPGXgRUfS77YPX69HGO8rdUoV5ptnweYPcI3ernXZFek+wcK0THrUj73C303PMePVloPyJcjRfHXxh75c2bMvcgZhdr8I8RyYOwad1IvbA3qzXeiBhLmb3di7umdxw1OrjONk8KSh49xSOhDRA5OSgHQNt7KP1KG1diLmzvfAN6Hun5q8XntsxSNPee/Gnb9VjExX1IOHTyqvY/ksn0KDVoJhhmnNL5nff5LnUrI8JVeGAcXUFzn9QgpRJPnCqmt8epw2lG55D1TwTZt8O8j9IyOPjw2yZ4EGnZ+LyO+LnqWxyJCKKDkH6cbQdTJX9X/ymBXsC+nj19e0aMG1uCK0PSedZ5cBTS5QljxUrZfuPKQ32s8pZe4NybH+ZUvzYfcp9eXuUBleI/Z4+k317QpjuW75eKd7foLR9J787qLHrmzT2gmxb1wmlOMj+bvygf2709e0KnBYoez6TC6kmRR+vTqVhc7B9CTItWKKs+fsdyjF7pzJsqZoMfbzaDiipA/YzIA+F3r5dA6aNSsNQmTsefbzG5Twduo/X99R/ZAxGRDTxWq2YdToN119IkQkToNsN57+64PrfLnRiLuLvjUf8f06EacJrIzywbSgGfl2LnMGaQiZMBLbtqg25O4B9x0JprhzK2G2rY/cs2JdfR0myTBgv0XBe+BuzvAjDNSfs1+5B2hD9r/rzwXnSCdPKlBENdDoaQ5ULNjUSEQWaYULiMjNyni5C0dM5MC+LhqCLxtL0GbMxfZp8Q5PDnMQwgi5VDBInIOgaDgMvIiL6C2NE5hsHkRmxqhqiPgy8iIiIiCKEgRcRERFRhDDwIqLoMi0G8WKi4KK5b9K4b9u06Zg9Y7p8Ex1iYuLFdsk34ynazosozItoMlS54FONRERERBHCGi8iIiKiCGHgRURERBQhDLyIiIiIIoSBFxEREVGEMPAiIiIiihAGXkREREQRAfx/ijg2vH8LAGkAAAAASUVORK5CYII=;" vertex="1" parent="1">
          <mxGeometry x="780" y="448.73" width="256" height="36.75" as="geometry" />
        </mxCell>
        <mxCell id="sNh2fQXsmdcM-SWCnf_G-19" value="" style="shape=curlyBracket;whiteSpace=wrap;html=1;rounded=1;labelPosition=left;verticalLabelPosition=middle;align=right;verticalAlign=middle;size=0.5;" vertex="1" parent="1">
          <mxGeometry x="1052" y="442.5" width="20" height="65" as="geometry" />
        </mxCell>
        <mxCell id="sNh2fQXsmdcM-SWCnf_G-20" value="donde &lt;span class=&quot;katex&quot;&gt;&lt;span class=&quot;katex-mathml&quot;&gt;&lt;math xmlns=&quot;http://www.w3.org/1998/Math/MathML&quot;&gt;&lt;mrow&gt;&lt;mi mathvariant=&quot;normal&quot;&gt;∣&lt;/mi&gt;&lt;mi&gt;A&lt;/mi&gt;&lt;mo&gt;∪&lt;/mo&gt;&lt;mi&gt;B&lt;/mi&gt;&lt;mi mathvariant=&quot;normal&quot;&gt;∣&lt;/mi&gt;&lt;/mrow&gt;|A \cup B|&lt;/math&gt;&lt;/span&gt;&lt;span aria-hidden=&quot;true&quot; class=&quot;katex-html&quot;&gt;&lt;span class=&quot;base&quot;&gt;&lt;span class=&quot;strut&quot;&gt;&lt;/span&gt;&lt;span class=&quot;mord&quot;&gt;∣&lt;/span&gt;&lt;span class=&quot;mord mathnormal&quot;&gt;A&lt;/span&gt;&lt;span class=&quot;mspace&quot;&gt;&lt;/span&gt;&lt;span class=&quot;mbin&quot;&gt;∪&lt;/span&gt;&lt;span class=&quot;mspace&quot;&gt;&lt;/span&gt;&lt;/span&gt;&lt;span class=&quot;base&quot;&gt;&lt;span class=&quot;strut&quot;&gt;&lt;/span&gt;&lt;span class=&quot;mord mathnormal&quot;&gt;B&lt;/span&gt;&lt;span class=&quot;mord&quot;&gt;∣&lt;/span&gt;&lt;/span&gt;&lt;/span&gt;&lt;/span&gt; es el número total de elementos en los conjuntos &lt;span class=&quot;katex&quot;&gt;&lt;span class=&quot;katex-mathml&quot;&gt;&lt;math xmlns=&quot;http://www.w3.org/1998/Math/MathML&quot;&gt;&lt;mrow&gt;&lt;mi&gt;A&lt;/mi&gt;&lt;/mrow&gt;A&lt;/math&gt;&lt;/span&gt;&lt;span aria-hidden=&quot;true&quot; class=&quot;katex-html&quot;&gt;&lt;span class=&quot;base&quot;&gt;&lt;span class=&quot;strut&quot;&gt;&lt;/span&gt;&lt;span class=&quot;mord mathnormal&quot;&gt;A&lt;/span&gt;&lt;/span&gt;&lt;/span&gt;&lt;/span&gt; y &lt;span class=&quot;katex&quot;&gt;&lt;span class=&quot;katex-mathml&quot;&gt;&lt;math xmlns=&quot;http://www.w3.org/1998/Math/MathML&quot;&gt;&lt;mrow&gt;&lt;mi&gt;B&lt;/mi&gt;&lt;/mrow&gt;B&lt;/math&gt;&lt;/span&gt;&lt;span aria-hidden=&quot;true&quot; class=&quot;katex-html&quot;&gt;&lt;span class=&quot;base&quot;&gt;&lt;span class=&quot;strut&quot;&gt;&lt;/span&gt;&lt;span class=&quot;mord mathnormal&quot;&gt;B&lt;/span&gt;&lt;/span&gt;&lt;/span&gt;&lt;/span&gt;, &lt;span class=&quot;katex&quot;&gt;&lt;span class=&quot;katex-mathml&quot;&gt;&lt;math xmlns=&quot;http://www.w3.org/1998/Math/MathML&quot;&gt;&lt;mrow&gt;&lt;mi mathvariant=&quot;normal&quot;&gt;∣&lt;/mi&gt;&lt;mi&gt;A&lt;/mi&gt;&lt;mi mathvariant=&quot;normal&quot;&gt;∣&lt;/mi&gt;&lt;/mrow&gt;|A|&lt;/math&gt;&lt;/span&gt;&lt;span aria-hidden=&quot;true&quot; class=&quot;katex-html&quot;&gt;&lt;span class=&quot;base&quot;&gt;&lt;span class=&quot;strut&quot;&gt;&lt;/span&gt;&lt;span class=&quot;mord&quot;&gt;∣&lt;/span&gt;&lt;span class=&quot;mord mathnormal&quot;&gt;A&lt;/span&gt;&lt;span class=&quot;mord&quot;&gt;∣&lt;/span&gt;&lt;/span&gt;&lt;/span&gt;&lt;/span&gt; es el número de elementos en el conjunto &lt;span class=&quot;katex&quot;&gt;&lt;span class=&quot;katex-mathml&quot;&gt;&lt;math xmlns=&quot;http://www.w3.org/1998/Math/MathML&quot;&gt;&lt;mrow&gt;&lt;mi&gt;A&lt;/mi&gt;&lt;/mrow&gt;A&lt;/math&gt;&lt;/span&gt;&lt;span aria-hidden=&quot;true&quot; class=&quot;katex-html&quot;&gt;&lt;span class=&quot;base&quot;&gt;&lt;span class=&quot;strut&quot;&gt;&lt;/span&gt;&lt;span class=&quot;mord mathnormal&quot;&gt;A&lt;/span&gt;&lt;/span&gt;&lt;/span&gt;&lt;/span&gt;, &lt;span class=&quot;katex&quot;&gt;&lt;span class=&quot;katex-mathml&quot;&gt;&lt;math xmlns=&quot;http://www.w3.org/1998/Math/MathML&quot;&gt;&lt;mrow&gt;&lt;mi mathvariant=&quot;normal&quot;&gt;∣&lt;/mi&gt;&lt;mi&gt;B&lt;/mi&gt;&lt;mi mathvariant=&quot;normal&quot;&gt;∣&lt;/mi&gt;&lt;/mrow&gt;|B|&lt;/math&gt;&lt;/span&gt;&lt;span aria-hidden=&quot;true&quot; class=&quot;katex-html&quot;&gt;&lt;span class=&quot;base&quot;&gt;&lt;span class=&quot;strut&quot;&gt;&lt;/span&gt;&lt;span class=&quot;mord&quot;&gt;∣&lt;/span&gt;&lt;span class=&quot;mord mathnormal&quot;&gt;B&lt;/span&gt;&lt;span class=&quot;mord&quot;&gt;∣&lt;/span&gt;&lt;/span&gt;&lt;/span&gt;&lt;/span&gt; es el número de elementos en el conjunto &lt;span class=&quot;katex&quot;&gt;&lt;span class=&quot;katex-mathml&quot;&gt;&lt;math xmlns=&quot;http://www.w3.org/1998/Math/MathML&quot;&gt;&lt;mrow&gt;&lt;mi&gt;B&lt;/mi&gt;&lt;/mrow&gt;B&lt;/math&gt;&lt;/span&gt;&lt;span aria-hidden=&quot;true&quot; class=&quot;katex-html&quot;&gt;&lt;span class=&quot;base&quot;&gt;&lt;span class=&quot;strut&quot;&gt;&lt;/span&gt;&lt;span class=&quot;mord mathnormal&quot;&gt;B&lt;/span&gt;&lt;/span&gt;&lt;/span&gt;&lt;/span&gt;, y &lt;span class=&quot;katex&quot;&gt;&lt;span class=&quot;katex-mathml&quot;&gt;&lt;math xmlns=&quot;http://www.w3.org/1998/Math/MathML&quot;&gt;&lt;mrow&gt;&lt;mi mathvariant=&quot;normal&quot;&gt;∣&lt;/mi&gt;&lt;mi&gt;A&lt;/mi&gt;&lt;mo&gt;∩&lt;/mo&gt;&lt;mi&gt;B&lt;/mi&gt;&lt;mi mathvariant=&quot;normal&quot;&gt;∣&lt;/mi&gt;&lt;/mrow&gt;|A \cap B|&lt;/math&gt;&lt;/span&gt;&lt;span aria-hidden=&quot;true&quot; class=&quot;katex-html&quot;&gt;&lt;span class=&quot;base&quot;&gt;&lt;span class=&quot;strut&quot;&gt;&lt;/span&gt;&lt;span class=&quot;mord&quot;&gt;∣&lt;/span&gt;&lt;span class=&quot;mord mathnormal&quot;&gt;A&lt;/span&gt;&lt;span class=&quot;mspace&quot;&gt;&lt;/span&gt;&lt;span class=&quot;mbin&quot;&gt;∩&lt;/span&gt;&lt;span class=&quot;mspace&quot;&gt;&lt;/span&gt;&lt;/span&gt;&lt;span class=&quot;base&quot;&gt;&lt;span class=&quot;strut&quot;&gt;&lt;/span&gt;&lt;span class=&quot;mord mathnormal&quot;&gt;B&lt;/span&gt;&lt;span class=&quot;mord&quot;&gt;∣&lt;/span&gt;&lt;/span&gt;&lt;/span&gt;&lt;/span&gt; es el número de elementos que están en ambos conjuntos." style="text;html=1;align=center;verticalAlign=middle;whiteSpace=wrap;rounded=0;" vertex="1" parent="1">
          <mxGeometry x="1080" y="460" width="340" height="30" as="geometry" />
        </mxCell>
        <mxCell id="sNh2fQXsmdcM-SWCnf_G-21" value="&lt;b&gt;Principio del Pigeonhole (Principio de las Casillas)&lt;/b&gt;" style="text;html=1;align=center;verticalAlign=middle;whiteSpace=wrap;rounded=0;" vertex="1" parent="1">
          <mxGeometry x="120" y="523" width="160" height="30" as="geometry" />
        </mxCell>
        <mxCell id="sNh2fQXsmdcM-SWCnf_G-22" value="El &lt;strong&gt;principio del pigeonhole&lt;/strong&gt; establece que si distribuyes más objetos que recipientes entre los que distribuirlos, entonces al menos un recipiente contendrá más de un objeto. Aunque sencillo, este principio es útil para demostrar la existencia de ciertas configuraciones en problemas de conteo." style="text;html=1;align=left;verticalAlign=middle;whiteSpace=wrap;rounded=0;" vertex="1" parent="1">
          <mxGeometry x="320" y="530" width="540" height="30" as="geometry" />
        </mxCell>
      </root>
    </mxGraphModel>
  </diagram>
</mxfile>
